<?xml version="1.0" encoding="UTF-8"?>
<svg width="88px" height="104px" viewBox="0 0 88 104" version="1.1" xmlns="http://www.w3.org/2000/svg" xmlns:xlink="http://www.w3.org/1999/xlink">
    <title>arden-logo-1</title>
    <g id="arden-logo-1" stroke="none" stroke-width="1" fill="none" fill-rule="evenodd">
        <g fill-rule="nonzero">
            <path d="M64.98,5.39 C65.62,6.09 66.82,7.25 68.22,7.43 C68.35,7.42 68.38,7.49 68.04,7.67 C67.84,7.78 67.51,7.92 67.3,8.05 C67.17,8.14 67.26,8.21 67.39,8.3 C67.67,8.5 68.03,8.63 68.3,8.57 C68.47,8.54 68.65,8.53 68.82,8.56 C68.93,8.59 69.04,8.58 69.14,8.54 C69.37,8.39 69.18,8.01 69.29,7.79 C69.33,7.71 69.65,7.68 69.73,7.41 C69.82,7.11 69.78,7.03 69.92,6.77 C70.12,6.41 70.45,6.12 70.72,5.81 C71.1,5.38 71.47,5.09 71.86,4.53 C71.99,4.34 72.58,3.42 72.44,3.3 C72.37,3.3 71.81,3.94 71.68,4.12 L71.27,4.59 C70.76,5.15 70.27,5.73 69.72,6.24 C69.17,6.75 68.53,6.57 67.93,6.35 C67.04,6.03 66.16,5.66 65.28,5.33 C65.24,5.32 64.79,5.07 64.72,5.09 C64.67,5.1 64.83,5.25 64.98,5.39" id="Path" fill="#66C9BA"></path>
            <path d="M74.55,11.45 C74.66,11.53 74.28,11.81 74.04,11.93 C74.04,11.93 73.84,12 73.82,12.12 C73.8,12.28 74.33,12.37 74.58,12.41 C74.8,12.45 75.03,12.45 75.25,12.41 C75.3,12.38 75.33,12.32 75.32,12.26 C75.25,11.67 75.47,11.72 75.47,11.72 C75.47,11.72 76.03,11.79 76.25,11.66 C76.34,11.62 76.45,11.61 76.54,11.65 C76.65,11.68 76.71,11.71 76.61,11.55 C76.55,11.47 76.54,11.36 76.59,11.28 C77.65,9.7 77.69,8.65 77.35,7.78 C77.31,7.63 77.09,8.22 77,8.44 C76.94,8.59 76.7,9.16 76.67,9.22 C76.34,9.9 76.29,10.02 75.85,10.58 C75.6,10.91 75.43,10.89 75.11,10.59 C74.16,9.69 73.88,8.76 73.18,7.78 C73.16,7.75 73.14,7.74 73.12,7.74 C73.02,7.74 72.94,8.07 72.97,8.24 C73.28,10.1 73.42,10.65 74.55,11.45" id="Path" fill="#66C9BA"></path>
            <path d="M76.46,26.84 C76.03,27.15 75.49,27.36 74.99,27.59 C74.99,27.59 74.44,27.86 74.2,28 C73.96,28.13 73.82,27.78 73.8,27.73 C73.8,27.72 73.79,27.72 73.79,27.71 C73.42,27.25 73.01,26.8 72.74,26.29 C72.5,25.83 72.1,25.74 71.74,25.74 C71.65,25.74 71.57,25.75 71.49,25.75 C70.53,25.84 69.59,26.09 68.65,26.3 C68.49,26.33 67.09,26.56 67.19,26.7 C67.23,26.75 67.48,26.81 67.79,26.85 C67.87,26.86 67.96,26.86 68.04,26.85 L68.96,26.68 C68.96,26.68 69.1,26.73 68.93,26.79 C68.93,26.79 68.68,26.88 69.07,27.04 C69.91,27.4 70.13,27.41 71.12,27.76 C71.26,27.81 71.5,27.8 71.55,27.96 C71.61,28.16 71.77,28.16 71.85,28.24 C71.96,28.37 71.98,28.39 72.01,28.52 C72.03,28.62 72.09,28.7 72.18,28.75 C72.31,28.78 72.31,28.92 72.37,29 C72.59,29.33 72.79,29.7 73.07,30.16 C73.08,30.19 73.08,30.22 73.05,30.23 L73,30.28 C72.65,30.62 72.28,30.94 71.89,31.24 C71.66,31.42 71.51,31.57 71.52,31.66 C71.53,31.75 71.84,31.91 72.18,31.99 C72.21,32 72.24,31.99 72.25,31.96 L72.84,31.2 L72.37,31.94 C72.35,31.97 72.36,32.02 72.39,32.04 C72.4,32.04 72.41,32.05 72.42,32.05 C72.55,32.07 72.67,32.09 72.78,32.11 C72.87,32.12 72.97,32.1 73.06,32.07 C73.11,32.05 73.17,32.03 73.23,32.03 C73.36,32.03 73.46,32.16 73.52,32.17 C73.6,32.19 73.69,32.17 73.75,32.11 C73.8,32.07 73.88,32.04 74.13,32.06 C74.18,32.07 74.13,32.28 74.31,32.28 C74.63,32.29 74.66,32.24 74.67,32.2 C74.67,31.92 74.64,31.64 74.58,31.36 C74.48,30.93 74.48,30.82 74.39,30.5 C74.37,30.42 74.28,30.28 74.5,30.22 L74.85,30.1 C75.04,30.03 75.2,29.89 75.29,29.7 C75.4,29.6 75.51,29.52 75.63,29.44 C75.89,29.26 76.16,29.11 76.45,28.98 C76.78,28.85 77.25,28.59 77.64,28.61 C78.48,28.66 78.78,28.72 79.35,28.74 C79.35,28.74 79.73,28.8 79.39,28.6 L78.68,28.17 L80.48,28.88 C80.99,29.01 81.6,29.14 81.67,29.08 C81.82,28.95 80.57,28.36 80.44,28.29 C79.62,27.82 78.67,27.2 77.8,26.81 C77.43,26.66 76.92,26.5 76.46,26.84" id="Path" fill="#66C9BA"></path>
            <path d="M76.86,3.4 C76.9,3.4 76.8,3.55 76.77,3.58 C76.73,3.63 76.7,3.68 76.68,3.74 C76.63,3.9 76.68,3.95 76.69,4.05 C76.69,4.08 76.72,4.11 76.76,4.11 C76.76,4.11 76.76,4.11 76.76,4.11 C76.87,4.09 77.07,3.93 77.25,3.98 C77.43,4.01 77.62,3.98 77.78,3.88 C78.48,3.55 78.22,3.39 78.77,3.19 C78.84,3.16 79.75,2.9 79.73,2.85 C79.69,2.76 79.11,2.68 78.87,2.66 C78.79,2.65 78.58,2.85 78.48,2.87 C78.33,2.91 78.31,2.9 78.31,2.9 C78.44,2.82 78.55,2.72 78.64,2.61 C78.72,2.52 78.78,2.42 78.83,2.32 C78.83,2.32 79.15,1.69 79.18,0.39 C79.2,0.26 79.15,0.12 79.05,0.04 C79.05,0.01 79.03,0 79.02,0 C79,0 78.99,0 78.98,0.01 C78.88,0.12 78.79,0.24 78.73,0.37 C78.37,1.11 78.29,1.8 77.66,2.53 C77.62,2.58 77.57,2.57 77.53,2.58 C76.75,2.83 76.4,2.2 75.65,1.34 C75.57,1.25 75.4,0.81 75.38,1.1 C75.35,1.43 75.38,1.76 75.46,2.08 C75.7,2.77 76.19,3.3 76.86,3.4" id="Path" fill="#66C9BA"></path>
            <path d="M67.3,16.61 C67.34,16.6 67.39,16.58 67.43,16.56 C67.48,16.53 67.5,16.47 67.49,16.42 C67.47,16.36 67.42,16.33 67.36,16.33 L67.06,16.33 L65.85,16.33 C65.03,16.31 64.14,16.29 63.24,16.24 C62.57,16.2 61.91,16.13 61.25,16.03 L60.63,15.94 L60.61,15.94 C60.48,15.92 60.37,15.91 60.32,15.85 C60.28,15.78 60.28,15.7 60.3,15.62 C60.31,15.52 60.28,15.42 60.23,15.34 L60.3,15.06 C60.31,15.03 60.3,15 60.28,14.98 C60.27,14.97 60.25,14.96 60.23,14.96 L60.2,14.96 C60.1,14.99 60.01,15.03 59.93,15.09 C59.77,15.06 59.6,15.12 59.49,15.24 L59.4,15.34 L59.3,15.45 C58.82,15.98 58.35,16.31 57.84,16.52 C57.42,16.69 57.03,16.84 56.64,16.99 L56.12,17.18 C55.53,17.4 55.02,17.59 54.07,17.91 C53.3,18.15 52.52,18.35 51.73,18.51 C51.33,18.6 50.92,18.69 50.52,18.79 C50.52,18.79 50.15,18.89 50.15,19.02 C50.15,19.05 50.16,19.08 50.18,19.1 C50.21,19.12 50.24,19.12 50.27,19.12 L51.08,18.99 L50.8,19.07 C50.76,19.08 50.74,19.11 50.74,19.15 C50.75,19.19 50.78,19.22 50.82,19.22 C51.73,19.28 52.64,19.29 53.54,19.24 C53.62,19.24 53.71,19.21 53.78,19.18 L53.95,19.15 C53.98,19.21 54.08,19.21 54.12,19.2 C55.15,19.14 56.07,18.93 56.72,18.62 L56.75,18.61 C56.82,18.57 56.89,18.55 56.94,18.52 C56.76,18.76 56.4,19.18 56.19,19.41 C56.09,19.52 56.06,19.61 56.11,19.68 C56.15,19.75 56.29,19.78 56.43,19.78 C56.55,19.78 56.66,19.77 56.78,19.74 C57.08,19.68 57.39,19.64 57.69,19.62 L57.8,19.61 C57.85,19.61 57.89,19.58 57.91,19.54 L58.12,19.12 L58.03,19.44 C58.02,19.48 58.03,19.51 58.06,19.54 C58.09,19.57 58.12,19.58 58.16,19.57 C58.35,19.55 58.55,19.51 58.74,19.47 C59.52,19.27 59.95,19.14 60.39,18.67 C60.42,18.65 60.43,18.61 60.43,18.57 C60.43,18.57 60.44,18.57 60.44,18.57 C60.47,18.57 60.5,18.55 60.52,18.53 C60.62,18.4 60.55,18.31 60.36,18.14 C60.33,18.12 60.29,18.07 60.23,18.01 C60.12,17.9 59.96,17.76 59.86,17.67 C59.89,17.67 59.93,17.67 59.96,17.67 C60.37,17.7 60.79,17.74 61.2,17.78 L61.67,17.83 C61.7,17.83 61.72,17.83 61.73,17.82 C61.75,17.81 61.76,17.79 61.77,17.78 C61.78,17.74 61.82,17.72 61.86,17.74 C61.87,17.74 61.88,17.75 61.89,17.76 L61.95,17.82 C61.98,17.85 62.01,17.86 62.05,17.86 C62.67,17.91 63.3,17.87 63.91,17.75 C64.87,17.54 65.88,17.29 66.85,16.82 C66.87,16.81 66.94,16.77 66.93,16.71 C66.92,16.65 66.85,16.64 66.82,16.64 L66.69,16.63 L66.99,16.63 C67.12,16.63 67.21,16.63 67.3,16.61" id="Path" fill="#66C9BA"></path>
            <path d="M71.13,17.8 C70.86,17.46 70.62,17.13 70.62,17.12 C70.52,17.01 70.41,16.91 70.32,16.98 C70.23,17.05 70.26,17.17 70.39,17.43 C70.69,18.02 71.3,18.61 71.58,18.84 C71.58,18.85 71.57,18.85 71.57,18.86 C71.53,18.96 71.62,19.04 71.66,19.06 C71.75,19.13 71.85,19.2 71.95,19.26 C71.95,19.28 71.95,19.29 71.95,19.31 C71.96,19.37 71.99,19.42 72.05,19.44 L72.12,19.47 C72.3,19.57 72.49,19.64 72.69,19.67 L72.7,19.67 C72.66,19.7 72.64,19.76 72.64,19.81 C72.65,19.97 72.91,20.04 73.12,20.08 L73.16,20.09 C73.3,20.11 73.3,20.11 73.33,20.17 C73.41,20.32 73.57,20.42 73.74,20.43 C73.82,20.42 73.9,20.44 73.97,20.49 C74.05,20.56 74.25,20.67 74.39,20.58 L74.41,20.57 C74.42,20.58 74.43,20.59 74.44,20.59 C74.62,20.74 74.75,20.67 74.79,20.64 C74.81,20.64 74.85,20.67 74.88,20.68 C74.95,20.73 75.05,20.73 75.12,20.68 C75.15,20.67 75.17,20.65 75.18,20.64 C75.2,20.66 75.23,20.68 75.25,20.69 C75.26,20.78 75.25,20.87 75.22,20.95 C75.19,21.08 75.14,21.2 75.06,21.31 C75,21.35 74.77,21.52 74.48,21.77 C74.13,22.01 73.77,22.24 73.4,22.44 C73.21,22.55 73.13,22.59 73.1,22.62 C73.05,22.65 73.02,22.71 73.03,22.77 C73.05,22.85 73.13,22.88 73.19,22.9 L73.24,22.92 L73.24,22.95 C73.25,23.01 73.29,23.07 73.34,23.09 C73.44,23.11 73.54,23.08 73.62,23.01 L73.97,22.74 C74.41,22.43 74.58,22.32 74.7,22.25 C74.76,22.25 74.81,22.25 74.87,22.27 C74.94,22.29 75.02,22.29 75.09,22.27 C75.46,22.18 75.83,22.05 76.17,21.88 C76.41,21.75 76.64,21.61 76.85,21.45 L77.13,21.26 C77.35,21.11 77.48,20.85 77.47,20.59 C77.56,20.53 77.65,20.46 77.72,20.38 C77.88,20.3 77.96,20.13 77.92,19.96 C77.95,19.89 78.01,19.83 78.08,19.8 C78.08,19.8 78.16,19.77 78.13,19.74 C78.02,19.67 77.89,19.65 77.77,19.69 C77.74,19.7 77.71,19.7 77.68,19.69 C77.55,19.66 77.41,19.67 77.28,19.71 C77.31,19.42 77.44,19.14 77.65,18.94 L77.74,18.85 C78.12,18.48 78.6,18.02 78.76,17.25 C78.84,16.88 78.95,16.52 79.08,16.17 C79.2,15.84 79.29,15.51 79.35,15.16 C79.38,13.43 79.18,13.4 79.1,13.38 C79.09,13.38 79.08,13.38 79.08,13.38 C78.95,13.38 78.87,13.53 78.76,13.92 C78.74,13.89 78.71,13.88 78.67,13.88 C78.37,13.87 77.38,15.65 77.23,16.36 L77.21,16.47 C77.2,16.51 77.19,16.54 77.18,16.58 C77.16,16.6 77.14,16.63 77.12,16.66 C77.05,16.8 77.02,16.96 77.01,17.12 C77,17.24 76.98,17.35 76.95,17.46 C76.9,17.53 76.85,17.63 76.79,17.73 C76.74,17.83 76.69,17.92 76.63,18.01 C76.59,18.07 76.56,18.15 76.55,18.22 C76.55,18.27 76.53,18.31 76.5,18.35 C76.47,18.39 76.43,18.42 76.4,18.44 C76.33,18.48 76.28,18.56 76.29,18.64 C76.29,18.66 76.3,18.69 76.31,18.71 C76.3,18.73 76.28,18.74 76.27,18.75 C76.2,18.81 76.16,18.91 76.18,19 C76.05,19.09 75.96,19.17 76.01,19.34 C76.02,19.37 76.03,19.39 76.03,19.41 C76.04,19.43 76.03,19.41 76.03,19.41 L76.01,19.42 C76,19.43 75.98,19.45 75.96,19.46 C75.88,19.5 75.84,19.59 75.85,19.67 L75.85,19.75 C75.51,19.72 73.86,19.57 72.9,19.02 C71.79,18.37 71.39,18.13 71.13,17.8" id="Path" fill="#66C9BA"></path>
            <path d="M78.68,47.62 C78.98,46.82 79.09,45.97 79,45.12 C78.97,44.65 78.36,41.6 78.55,44.58 C78.74,47.56 77.17,49.05 75.77,50.94 C75.38,51.46 74.96,51.95 74.51,52.41 L74.48,52.35 C74.45,52.29 74.41,52.24 74.36,52.2 C74.32,52.18 74.29,52.15 74.27,52.11 C74.22,52 74.15,51.9 74.07,51.8 L74.02,51.16 C74.02,51.16 74.02,50.93 73.88,50.93 C73.74,50.93 73.68,51.1 73.68,51.1 L73.43,51.57 C73.28,51.61 73.13,51.68 73.01,51.78 C72.54,52.12 72.43,52.47 72.16,52.84 C72.03,53 71.91,53.18 71.8,53.35 C71.32,54.03 70.77,54.33 70.25,54.57 C69.57,54.85 68.35,54.94 68.26,54.93 C68.02,54.89 67.53,54.81 66.92,54.7 C65.8,54.52 64.72,54.2 63.68,53.75 C63.26,53.52 62.85,53.27 62.46,52.99 C62.24,52.84 62.03,52.68 61.82,52.51 C61.56,52.25 61.34,51.95 61.17,51.62 C61.14,51.56 61.1,51.48 61.07,51.4 C61.14,51.36 61.21,51.32 61.29,51.29 C61.38,51.25 61.47,51.2 61.58,51.15 C61.86,51.02 62.18,50.85 62.39,50.77 C62.43,50.75 62.47,50.73 62.52,50.72 C62.55,50.71 62.57,50.7 62.59,50.67 L62.67,50.61 C62.67,50.61 62.69,50.64 62.71,50.64 C62.87,50.61 63.03,50.57 63.19,50.51 C63.32,50.45 63.16,50.23 63.3,50.17 C63.63,50.03 64.55,50.03 64.95,49.92 C65.02,49.9 65.06,49.83 65.04,49.76 C65.04,49.76 65.04,49.75 65.04,49.75 L65.08,49.69 L65.18,49.8 C65.2,49.83 65.24,49.85 65.27,49.84 C65.44,49.8 65.58,49.73 65.49,49.59 C65.49,49.59 65.4,49.43 65.4,49.43 C65.22,49.15 64.91,48.65 64.72,48.38 C64.53,48.11 64.36,47.82 64.21,47.52 C64.16,47.4 64.08,47.28 64.21,47.09 C64.32,46.98 64.43,46.87 64.55,46.77 C65.23,46.05 65.85,45.74 66.28,44.77 C66.43,44.43 66.56,43.87 66.58,43.86 C66.59,43.86 66.57,43.51 66.8,42.55 C66.94,42 66.95,41.43 66.82,40.88 C66.79,40.78 66.74,40.69 66.68,40.6 L66.7,40.06 C66.7,40.06 66.73,39.87 66.6,39.85 C66.48,39.83 66.41,39.98 66.41,39.98 L66.14,40.35 C66.01,40.37 65.88,40.41 65.76,40.48 C65.31,40.72 65.18,41 64.9,41.28 C64.8,41.38 64.71,41.47 64.62,41.57 C64.37,41.3 64.2,40.97 64.1,40.61 C63.85,39.67 62.59,34.91 62.6,32.89 C62.6,32.89 62.58,32.21 62.56,31.61 C62.53,30.8 63.36,29.36 63.45,29.19 C63.54,29.02 63.33,29.1 63.33,29.1 C62.19,30.15 61.98,31.31 61.98,31.31 C61.98,31.35 61.96,31.4 61.94,31.44 C61.9,31.48 61.83,31.45 61.81,31.28 C61.78,31.07 61.72,30.75 61.72,30.75 C61.72,30.75 61.67,30.44 61.54,30.82 C61.4,31.21 61.31,31.62 61.29,32.03 C61.29,32.03 61.28,32.43 61.18,32.26 C61.12,32.12 61.07,31.97 61.04,31.81 C61.04,31.81 60.97,31.27 60.83,32 C60.71,32.63 60.63,33.08 60.63,33.08 C60.63,33.08 60.63,33.23 60.54,33.18 C60.45,33.14 60.38,32.95 60.33,33.13 C60.27,33.31 60.18,33.96 60.37,34.44 C60.37,34.44 60.48,34.63 60.34,34.75 C60.34,34.75 60.15,34.93 60.16,35.11 C60.17,35.29 60.13,35.36 60.06,35.41 C59.99,35.46 59.77,35.69 59.88,35.87 C60,36.05 60.07,36.07 59.98,36.16 C59.89,36.25 59.63,36.4 59.65,36.58 C59.68,36.7 59.76,36.81 59.88,36.86 C59.88,36.86 59.97,36.89 59.95,36.96 C59.93,37.02 59.88,37.07 59.82,37.09 C59.73,37.14 59.69,37.23 59.71,37.33 C59.74,37.44 59.92,37.56 59.92,37.56 C59.92,37.56 60.02,37.62 60.03,37.69 C60.04,37.75 59.98,37.8 59.9,37.86 C59.75,37.97 59.69,38.11 59.73,38.2 C59.77,38.28 59.94,38.36 59.94,38.36 C59.94,38.36 60.01,38.41 59.97,38.45 C59.93,38.5 59.72,38.66 59.74,38.76 C59.77,38.86 60.17,38.98 60.17,38.98 C60.17,38.98 60.39,39.02 60.27,39.17 C60.22,39.23 59.95,39.68 59.95,39.68 L59.93,39.71 C59.53,39.55 58.79,39.25 57.98,38.9 C57.13,38.53 56.31,38.1 55.52,37.62 C54.57,37.04 55.03,35.95 54.68,35.48 C54.41,35.11 53.49,34.44 53.49,33.92 C53.49,33.62 53.51,33.32 53.53,33.03 C54.94,33.13 55.63,32.85 56.66,32.63 C57.23,32.5 57.51,31.98 57.64,31.44 L57.7,31.42 C57.8,31.31 58.03,31.23 58.15,31.28 C58.15,31.28 58.27,31.31 58.26,31.26 C58.2,31.07 58.07,30.92 57.89,30.83 C57.85,30.81 57.81,30.78 57.79,30.74 C57.78,30.72 57.76,30.71 57.75,30.68 C57.76,30.5 57.76,30.31 57.75,30.13 C57.77,30.08 58.13,29.15 59.03,28.75 C59.96,28.33 61.09,27.91 61.89,26.57 C62.69,25.23 63.76,24.13 64.22,23.19 C64.22,23.19 66.18,17.97 64.24,20.84 C64.24,20.84 63.95,21 64.03,20.62 C64.11,20.24 63.93,19.92 63.44,20.79 C63.44,20.79 62.96,21.84 63.07,21.26 C63.18,20.68 62.95,20.32 62.57,21.21 C62.19,22.1 62.13,22.03 62.16,21.7 C62.19,21.37 61.81,21.65 61.62,22.22 C61.43,22.79 61.25,23.06 61,23.28 C60.75,23.5 60.41,23.37 60.22,23.99 C60.03,24.61 60.04,24.33 59.78,24.51 C59.53,24.69 59.21,25.68 58.97,25.85 C58.73,26.03 58.33,26.45 58.08,26.63 C57.83,26.81 57.89,27.01 57.62,27.16 C57.35,27.31 57.21,27.23 57.18,27.4 C57.14,27.57 57.25,27.61 56.95,27.74 C56.65,27.86 56.87,28.06 56.61,28.14 C56.35,28.22 56.26,28.24 56.23,28.46 C56.2,28.68 56.26,28.71 56.06,28.79 C55.86,28.87 55.83,28.8 55.74,29.03 C55.65,29.25 55.71,29.43 55.55,29.34 C54.7,28.87 53.88,28.34 53.11,27.75 C52.81,27.53 52.19,26.97 51.53,26.35 C50.87,25.66 49.07,23.73 48.33,22.38 C47.95,21.69 47.47,21.06 47.01,20.29 C46.45,19.33 45.95,18.33 45.51,17.31 C44.87,15.64 45.1,14.79 45.1,14.79 C45.1,14.79 45.48,14.6 45.48,14.6 C45.72,14.53 45.96,14.47 46.2,14.43 L46.21,14.43 C46.25,14.43 46.29,14.41 46.32,14.38 C46.34,14.4 46.37,14.4 46.4,14.4 C46.48,14.39 46.58,14.37 46.62,14.29 C46.64,14.24 46.64,14.19 46.62,14.15 L46.6,14.11 L46.57,14.03 C46.46,13.8 46.36,13.6 46.26,13.42 C46.16,13.22 46.08,13.02 46.01,12.8 L46,12.74 C45.97,12.67 45.98,12.59 46.03,12.54 C46.07,12.5 46.12,12.46 46.16,12.43 C46.19,12.41 46.23,12.38 46.26,12.36 C46.4,12.23 46.54,12.13 46.68,12.02 C47,11.77 47.31,11.54 47.53,11.11 C47.58,11.01 47.62,10.92 47.66,10.83 C47.8,10.69 48.2,10.37 48.4,10.5 C48.56,10.6 48.67,10.48 48.74,10.4 L48.76,10.38 C48.77,10.37 48.78,10.37 48.78,10.36 L48.8,10.37 C48.82,10.39 48.84,10.4 48.87,10.41 C48.97,10.46 49.02,10.46 49.08,10.4 L49.09,10.39 C49.11,10.37 49.17,10.32 49.19,10.34 C49.24,10.38 49.36,10.43 49.51,10.26 C49.53,10.25 49.54,10.23 49.55,10.22 C49.57,10.23 49.58,10.23 49.59,10.24 C49.75,10.34 50.26,9.85 50.27,9.84 C50.34,9.78 50.43,9.74 50.52,9.74 C50.69,9.71 50.82,9.59 50.88,9.43 C50.91,9.34 50.91,9.34 51.07,9.3 L51.11,9.29 C51.24,9.26 51.53,9.15 51.53,8.99 C51.53,8.92 51.48,8.85 51.4,8.85 C51.39,8.85 51.38,8.84 51.36,8.84 C51.4,8.81 51.45,8.8 51.51,8.79 C51.7,8.73 51.89,8.64 52.05,8.52 L52.12,8.47 C52.16,8.45 52.19,8.41 52.19,8.37 C52.19,8.34 52.18,8.32 52.15,8.3 C52.28,8.2 52.38,8.1 52.48,8 C52.51,7.97 52.58,7.89 52.54,7.82 C52.53,7.8 52.52,7.79 52.5,7.78 C52.51,7.76 52.52,7.75 52.54,7.74 C52.79,7.46 53.36,6.73 53.61,6.03 C53.72,5.71 53.74,5.62 53.66,5.57 C53.61,5.55 53.55,5.55 53.42,5.75 C53.4,5.78 53.14,6.11 52.88,6.51 C52.6,6.95 52.24,7.2 51.45,7.74 C51.32,7.83 51.18,7.92 51.03,8.03 C50.12,8.67 48.77,8.81 48.29,8.85 L48.27,8.7 C48.44,8.56 48.51,8.34 48.44,8.13 C48.47,8.07 48.52,8.02 48.57,7.99 C48.6,7.97 48.66,7.94 48.67,7.89 C48.68,7.87 48.67,7.84 48.66,7.83 C48.53,7.75 48.37,7.75 48.23,7.81 C48.21,7.82 48.19,7.82 48.17,7.82 C48.15,7.81 48.13,7.81 48.11,7.8 C47.79,7.75 47.47,7.87 47.27,8.12 C47.1,8.24 46.94,8.37 46.8,8.52 C46.73,8.59 46.67,8.65 46.61,8.7 C46.55,8.75 46.54,8.76 46.51,8.79 L46.47,8.83 C46.14,9.13 45.41,9.32 45.41,9.32 C45.36,9.33 45.32,9.34 45.28,9.35 C45.07,9.4 44.79,9.46 44.57,9.4 C44.23,9.33 43.88,9.31 43.53,9.34 C43.4,9.35 43.28,9.36 43.14,9.37 C42.91,9.4 42.67,9.41 42.43,9.39 C42.13,9.32 41.83,9.23 41.54,9.11 L41.19,8.39 L41.15,8.47 L7.95,74.52 L22.06,74.52 L27.12,65.32 L55.16,65.32 L60.15,74.52 L74.27,74.52 L69.72,65.42 C70.36,64.66 70.05,65 70.36,64.89 C70.69,64.76 70.91,64.3 71.22,64.13 C71.28,64.09 71.34,64.06 71.41,64.03 C71.42,64.02 71.43,64.01 71.43,63.99 C71.43,63.99 71.48,63.8 71.51,63.9 C71.51,63.92 71.53,63.93 71.55,63.93 C71.55,63.93 71.56,63.93 71.56,63.93 C71.74,63.87 71.92,63.8 72.08,63.71 C72.22,63.62 72,63.38 72.16,63.29 C72.54,63.07 72.94,62.87 73.34,62.7 C73.42,62.67 73.45,62.58 73.42,62.5 C73.42,62.5 73.42,62.49 73.41,62.49 L73.27,62.26 L73.56,62.52 C73.59,62.56 73.63,62.57 73.67,62.55 C73.86,62.48 74.01,62.38 73.88,62.23 C73.88,62.23 73.75,62.06 73.75,62.06 C73.5,61.76 73.24,61.46 72.99,61.17 C72.73,60.88 72.5,60.57 72.29,60.24 C72.22,60.11 72.11,59.99 72.24,59.74 C72.34,59.59 72.46,59.45 72.58,59.32 C73.25,58.38 73.95,57.85 74.23,56.73 C74.32,56.38 74.38,56.02 74.4,55.67 C74.4,55.66 74.41,55.64 74.42,55.64 C74.52,55.6 74.55,55.47 74.56,55.35 C74.57,55.23 74.62,55.24 74.73,55.25 L74.83,55.25 C74.98,55.24 75.11,55.13 75.15,54.98 C75.2,54.84 75.37,54.83 75.45,54.83 C75.53,54.83 75.56,54.69 75.62,54.53 C75.66,54.43 75.82,54.42 75.94,54.39 C76.12,54.34 76.05,54.11 76.05,54.04 C76.05,53.97 76.3,53.87 76.36,53.79 C76.45,53.65 76.3,53.51 76.45,53.44 C76.57,53.4 76.66,53.3 76.7,53.19 C76.72,53.1 76.83,53.06 76.8,52.95 C76.77,52.84 76.93,52.75 77.05,52.66 C77.18,52.57 77.12,52.26 77.11,52.11 C77.12,51.99 77.17,51.87 77.25,51.78 C77.25,51.78 77.73,51.31 77.96,51.08 C78.18,50.85 77.84,50.92 77.76,50.93 C77.68,50.94 77.48,51.03 77.41,50.94 C77.34,50.86 77.52,50.63 77.52,50.63 C77.52,50.63 78.25,49.79 78.47,49.52 C78.83,49.07 78.45,49.29 78.45,49.29 C78.45,49.29 78.32,49.36 78.26,49.31 C78.22,49.28 78.33,49.15 78.33,49.15 C78.33,49.15 78.56,48.81 78.77,48.42 C79.18,47.67 78.7,48.1 78.7,48.1 C78.7,48.1 78.59,48.23 78.55,48.11 C78.51,47.99 78.66,47.67 78.68,47.65 L78.68,47.62 Z M42.43,10.79 L43.45,11.09 C44.2,11.3 45.13,11.57 45.38,11.62 C45.38,11.62 45.56,11.64 45.43,11.87 C45.31,12.07 45.22,12.29 45.13,12.51 L44.62,13.5 L44.53,13.68 L44.23,14.29 C44.19,14.4 44.12,14.5 44.05,14.6 C44.04,14.61 44.03,14.61 44.01,14.61 C43.96,14.61 43.93,14.5 43.92,14.4 C43.9,14.3 43.9,14.04 43.9,14.04 C43.9,13.66 43.9,13.49 43.89,12.87 C43.88,12.55 42.6,11.16 42.42,11 C42.13,10.76 42.25,10.75 42.43,10.79 M33.3,53.96 L41.15,37.34 L48.91,53.96 L33.3,53.96 L33.3,53.96 Z M52.58,31.54 L52.38,31.59 C52.37,31.6 52.36,31.6 52.35,31.6 C52.28,31.6 52.29,31.42 52.29,31.42 C52.29,31.42 52.19,29.64 52.12,29.17 C52.1,29.06 52.08,28.95 52.08,28.83 C52.08,28.82 52.09,28.82 52.1,28.83 C52.12,28.84 52.14,28.86 52.16,28.88 C52.19,28.91 52.22,28.94 52.26,28.99 C52.26,28.99 52.64,29.5 55,30.45 C55,30.45 55.36,30.61 54.82,30.77 L53.33,31.29 L52.58,31.54 Z M62.33,46.16 L62.28,46.25 C62.26,46.28 62.24,46.32 62.22,46.35 C62.2,46.39 62.17,46.43 62.14,46.47 C62.11,46.51 62.09,46.55 62.06,46.6 C62.03,46.65 61.98,46.71 61.93,46.77 C61.89,46.83 61.85,46.88 61.8,46.94 C61.64,47.15 61.46,47.36 61.29,47.54 C61.22,47.62 61.15,47.69 61.08,47.76 C61.01,47.83 60.94,47.89 60.87,47.95 C60.65,48.13 60.37,48.43 60.27,48.43 L60.25,48.43 C60.25,48.43 60.24,48.37 60.27,48.28 C60.28,48.24 60.3,48.19 60.32,48.14 C60.32,48.13 60.33,48.11 60.34,48.1 C60.37,48.03 60.4,47.94 60.43,47.85 C60.45,47.8 60.47,47.75 60.49,47.69 C60.51,47.63 60.52,47.61 60.53,47.56 C60.57,47.46 60.61,47.35 60.64,47.23 C60.65,47.18 60.67,47.13 60.68,47.08 C60.7,47.03 60.71,46.97 60.72,46.92 C60.73,46.87 60.75,46.81 60.76,46.76 C60.77,46.71 60.78,46.65 60.79,46.6 L60.8,46.54 L60.8,46.52 L60.8,46.5 L60.8,46.41 C60.82,46.22 60.8,46.02 60.72,45.85 C60.63,45.67 60.31,45.25 59.92,44.77 C59.61,44.39 59.27,43.98 58.97,43.63 C58.92,43.56 58.86,43.5 58.81,43.44 L58.53,43.11 C58.49,43.06 58.46,43.02 58.43,42.98 L58.27,42.78 C58.18,42.67 58.31,42.72 58.33,42.72 C58.52,42.81 58.75,42.92 58.75,42.92 L59.12,43.13 L59.45,43.32 C59.45,43.32 61.2,44.41 61.87,44.79 L62.39,45.1 C62.65,45.26 62.73,45.35 62.37,46.11 C62.36,46.1 62.35,46.12 62.33,46.16 M71.23,59.83 C70.92,60.8 69.87,63.21 69.54,64.26 C69.53,64.29 69.52,64.32 69.51,64.35 C69.49,64.42 69.47,64.49 69.44,64.56 C69.43,64.6 69.42,64.63 69.4,64.67 C69.4,64.68 69.39,64.68 69.39,64.68 C69.14,64.68 66.71,59.16 66.37,58.56 L66.47,58.58 L66.62,58.61 C66.65,58.62 66.68,58.63 66.72,58.63 L67.16,58.72 L67.53,58.8 C67.78,58.84 68.25,58.91 68.31,58.93 C68.31,58.93 70.71,59.22 71.07,59.3 C71.43,59.38 71.28,59.69 71.23,59.83 L71.23,59.83 Z" id="Shape" fill="#66C9BA"></path>
            <path d="M59.38,10 C59.19,9.99 59.15,9.9 59.13,9.73 C59.12,9.67 59.1,9.6 59.07,9.55 C59.07,9.55 59.13,9.39 59.15,9.36 C59.17,9.32 59.15,9.28 59.13,9.28 C59.12,9.28 59.12,9.28 59.11,9.29 C59.09,9.3 59.01,9.36 58.95,9.42 C58.82,9.33 58.65,9.35 58.54,9.46 C58.14,9.79 58.2,9.88 57.23,9.97 C56.38,10.05 55.75,10.28 54.92,10.42 C54.63,10.47 54.22,10.59 54,10.65 C53.87,10.68 53.83,10.8 54.02,10.82 C54.48,10.8 55.14,11.24 55.66,11.33 C56.18,11.42 56.57,11.28 56.99,11.23 C57.14,11.22 57.27,11.32 57.28,11.47 C57.28,11.48 57.28,11.49 57.28,11.5 C57.27,11.74 57,12.07 56.5,12.56 C56.45,12.6 56.45,12.68 56.49,12.73 C56.5,12.74 56.52,12.75 56.53,12.76 C57.19,12.96 57.67,12.62 58.1,13.2 C58.2,13.33 58.33,13.25 58.3,13.15 C58.25,12.94 58.21,12.73 58.19,12.52 C58.16,12.38 58.15,12.23 58.15,12.09 C58.15,11.98 58.16,11.89 58.17,11.77 C58.19,11.53 58.45,11.4 58.69,11.45 C59.46,11.62 60.24,11.77 61.01,11.95 C61.73,12.12 62.43,12.09 63.1,11.75 C63.26,11.66 63.32,11.5 63.04,11.47 C62.96,11.46 62.83,11.43 62.76,11.42 C62.06,11.29 61.55,11.02 61,10.72 C60.48,10.41 60.01,10.02 59.38,10" id="Path" fill="#66C9BA"></path>
            <path d="M56.3,1.58 L56.67,1.92 C56.97,2.17 57.06,2.26 57.26,2.43 C57.56,2.69 57.85,2.98 58.12,3.28 C58.37,3.53 58.57,3.82 58.71,4.14 C58.77,4.27 58.87,4.46 58.84,4.54 C58.77,4.67 58.65,4.77 58.51,4.81 C58.23,4.88 57.95,4.93 57.66,4.97 C57.61,5 57.57,5.05 57.59,5.1 C57.59,5.11 57.59,5.11 57.6,5.12 C57.73,5.41 57.84,5.61 58.17,5.54 C58.4,5.49 58.72,5.32 59.03,5.24 C59.23,5.2 59.44,5.17 59.65,5.18 C59.74,5.17 59.81,5.16 59.88,5.15 C60.12,5.14 60.44,5.02 60.87,4.55 C60.87,4.55 61.21,4.22 61.21,4.21 C61.24,4.16 61.43,3.91 61.46,3.85 C61.49,3.77 61.54,3.69 61.6,3.62 C61.65,3.55 61.72,3.51 61.8,3.49 C61.8,3.49 61.85,3.45 61.84,3.43 C61.78,3.37 61.69,3.34 61.61,3.34 C61.59,3.34 61.57,3.33 61.55,3.32 C61.5,3.28 61.43,3.26 61.36,3.27 C61.28,3.29 61.21,3.34 61.16,3.4 C61.14,3.41 61.12,3.42 61.1,3.43 L60.96,3.52 C61.08,3.17 61.21,2.83 61.36,2.49 C61.47,2.27 61.45,2.01 61.31,1.8 C61.26,1.74 61.21,1.69 61.14,1.66 C61.03,1.6 60.9,1.64 60.83,1.74 C60.58,2.15 60.32,2.56 60.05,2.99 C59.98,3.1 59.84,3.13 59.73,3.07 C59.71,3.06 59.69,3.04 59.68,3.03 C59.27,2.55 58.75,2.35 58.24,2.13 C57.87,1.97 56.68,1.33 56.17,1.16 C56.11,1.14 56.05,1.13 55.99,1.12 C55.85,1.12 55.92,1.25 56.3,1.58" id="Path" fill="#66C9BA"></path>
            <path d="M70.08,34.2 C70.09,34.2 70.1,34.2 70.11,34.2 C70.13,34.21 70.16,34.22 70.17,34.24 C70.21,34.3 70.58,34.9 70.6,34.92 C70.87,35.24 71.28,35.5 71.99,35.81 C72.72,36.12 75.27,36.41 75.55,36.45 L75.57,36.45 C75.65,36.44 75.72,36.42 75.79,36.41 C75.98,36.35 76.19,36.34 76.39,36.39 C76.47,36.41 76.55,36.39 76.6,36.34 C76.76,36.1 76.98,35.92 77.24,35.8 C77.28,35.75 77.31,35.7 77.33,35.65 C77.38,35.55 77.41,35.49 77.46,35.49 C77.49,35.49 77.51,35.51 77.53,35.53 C77.56,35.6 77.58,35.67 77.58,35.74 C77.58,35.79 77.59,35.84 77.61,35.89 C77.71,36.02 77.78,36.17 77.82,36.34 C77.86,36.47 77.83,36.62 77.75,36.73 C77.66,36.82 77.63,36.96 77.68,37.09 C77.71,37.16 77.76,37.23 77.82,37.28 C77.98,37.39 78.11,37.53 78.2,37.7 C78.22,37.73 78.24,37.76 78.27,37.78 C78.69,38.03 80.82,39.31 81.82,39.61 C81.82,39.61 82.15,39.72 82.46,39.82 C82.69,39.9 83.12,39.88 83.74,39.78 L83.79,39.78 C83.84,39.77 83.88,39.78 83.9,39.82 C83.92,39.86 83.89,39.92 83.87,39.95 L83.85,39.96 C83.45,40.17 83.01,40.27 82.57,40.25 L82.76,40.34 C82.82,40.37 82.85,40.4 82.84,40.45 C82.83,40.51 82.75,40.52 82.67,40.52 C82.47,40.53 82.26,40.51 82.06,40.47 L82.12,40.5 C82.21,40.54 82.25,40.58 82.23,40.63 C82.21,40.68 82.13,40.69 81.96,40.67 L81.41,40.6 C81.42,40.63 81.42,40.66 81.41,40.69 C81.39,40.72 81.35,40.73 81.31,40.73 C81.07,40.72 80.84,40.64 80.64,40.5 C80.63,40.5 80.59,40.45 80.54,40.47 C80.46,40.51 80.37,40.52 80.29,40.5 C80.21,40.47 80.19,40.49 80.18,40.5 C80.14,40.53 79.95,40.61 79.85,40.5 C79.83,40.48 79.82,40.46 79.8,40.44 C79.79,40.44 79.79,40.43 79.79,40.42 L79.75,40.44 C79.67,40.5 79.57,40.52 79.48,40.5 C79.41,40.46 79.36,40.4 79.35,40.32 C79.34,40.32 79.33,40.33 79.32,40.34 C79.26,40.39 79.18,40.39 79.12,40.36 C79.07,40.32 79.04,40.26 79.02,40.2 C79.02,40.19 79.01,40.18 79.01,40.17 C78.99,40.18 78.97,40.19 78.96,40.2 C78.89,40.26 78.78,40.27 78.7,40.23 C78.67,40.2 78.65,40.15 78.64,40.1 C78.56,40.14 78.48,40.17 78.42,40.14 C78.36,40.1 78.36,40.01 78.36,39.87 C78.36,39.86 78.36,39.86 78.36,39.85 C78.32,39.86 78.11,39.91 78.05,39.92 C77.98,39.94 77.9,39.93 77.83,39.88 C77.45,39.7 77.09,39.49 76.75,39.25 C76.66,39.18 76.56,39.13 76.45,39.09 C76.47,39.38 76.49,39.53 76.52,39.73 L76.54,39.9 C76.55,39.98 76.57,40.08 76.59,40.19 C76.62,40.33 76.65,40.48 76.66,40.6 C76.67,40.66 76.66,40.73 76.63,40.78 C76.61,40.81 76.57,40.82 76.53,40.82 C76.45,40.85 76.39,40.89 76.33,40.95 C76.23,41.03 76.13,41.12 76.01,41.1 C75.92,41.08 75.84,41.02 75.79,40.94 C75.77,40.95 75.76,40.96 75.75,40.97 C75.72,41 75.68,41.01 75.65,41.02 L75.61,41.03 C75.54,41.04 75.47,41.04 75.4,41.03 C75.36,41.02 75.31,41.01 75.27,40.99 C75.15,40.93 75.04,40.86 74.93,40.78 L74.86,40.73 C74.78,40.67 74.67,40.65 74.71,40.56 L74.76,40.46 C74.79,40.41 74.79,40.4 74.82,40.32 C74.82,40.32 74.93,40.12 74.71,40.21 C74.63,40.25 74.55,40.31 74.51,40.33 C74.26,40.46 74.22,40.43 74.02,40.5 C73.97,40.52 73.91,40.54 73.84,40.57 C73.71,40.62 73.56,40.58 73.48,40.46 L73.35,40.29 C73.3,40.22 73.32,40.12 73.38,40.08 C73.38,40.08 73.38,40.08 73.39,40.08 L73.34,40.09 C73.28,40.1 73.21,40.08 73.17,40.04 C72.89,39.82 72.64,39.56 72.43,39.28 L72.41,39.25 C72.39,39.23 72.37,39.2 72.37,39.17 C72.37,39.13 72.46,39.14 72.46,39.14 L72.49,39.14 C72.63,39.13 72.65,39.09 72.59,39.08 L72.32,39.04 C72.29,39.03 72.21,39.02 72.21,38.95 C72.21,38.88 72.3,38.87 72.37,38.87 C72.92,38.85 73.45,38.68 73.92,38.39 C73.85,38.37 73.79,38.32 73.75,38.26 C73.69,38.19 73.59,38.16 73.5,38.17 C73.41,38.21 73.31,38.17 73.26,38.1 C73.24,38.07 73.21,38.06 73.11,38.06 C72.99,38.07 72.87,38 72.82,37.89 C72.77,37.82 72.7,37.78 72.61,37.78 C72.51,37.79 72.41,37.75 72.34,37.67 L72.32,37.64 C72.28,37.59 72.26,37.56 72.21,37.55 C72.1,37.54 72.03,37.43 72.01,37.23 C72,37.16 71.93,37.15 71.76,37.16 C71.6,37.15 71.47,37.03 71.43,36.88 C71.42,36.85 71.42,36.83 71.42,36.8 C71.41,36.75 71.41,36.75 71.37,36.75 C71.2,36.73 71.05,36.62 70.98,36.47 C70.97,36.44 70.96,36.42 70.94,36.4 C70.9,36.31 70.89,36.28 70.84,36.26 C70.74,36.21 70.67,36.11 70.68,35.99 C70.68,35.94 70.65,35.89 70.6,35.86 C70.39,35.73 70.08,35.32 69.96,35.15 C69.93,35.11 69.93,35.08 69.95,35.06 C69.97,35.04 70.03,35.05 70.05,35.06 C70.07,35.07 70.1,35.08 70.12,35.09 C70.03,34.91 69.91,34.66 69.83,34.46 C69.81,34.42 69.83,34.38 69.86,34.35 C69.9,34.33 69.94,34.33 69.97,34.37 L70.18,34.6 L70.08,34.37 C70.07,34.32 70.08,34.28 70.11,34.27" id="Path" fill="#66C9BA"></path>
            <path d="M12.37,91.06 L9.44,91.06 L8.56,89.34 L3.79,89.34 L2.93,91.06 L0,91.06 L6.2,78.7 L12.37,91.06 Z M4.89,87.12 L7.48,87.12 L6.2,84.56 L4.89,87.12 Z" id="Shape" fill="#66C9BA"></path>
            <path d="M27.62,91.04 L24.24,91.04 L21.48,86.99 L20.38,86.99 L20.38,91.04 L17.62,91.04 L17.62,78.6699596 L22.24,78.6699596 C24.53,78.66 26.4,80.51 26.41,82.81 C26.42,84.27 25.65,85.62 24.4,86.36 L27.62,91.04 Z M23.63,82.8 C23.63,82.03 23.01,81.4 22.24,81.39 L20.37,81.39 L20.37,84.22 L22.24,84.22 C23.02,84.22 23.64,83.58 23.63,82.8 Z" id="Shape" fill="#66C9BA"></path>
            <path d="M43.41,84.85 C43.4,88.28 40.63,91.06 37.2,91.06 L33.36,91.06 L33.36,78.63 L37.2,78.63 C40.62,78.63 43.41,81.41 43.41,84.85 L43.41,84.85 Z M40.59,84.85 C40.6,82.97 39.08,81.44 37.21,81.43 C37.21,81.43 37.2,81.43 37.2,81.43 L36.14,81.43 L36.14,88.26 L37.2,88.26 C39.08,88.26 40.6,86.74 40.6,84.86 C40.59,84.86 40.59,84.85 40.59,84.85 Z" id="Shape" fill="#66C9BA"></path>
            <polygon id="Path" fill="#66C9BA" points="49.45 91.04 49.45 78.65 58.13 78.65 58.13 81.41 52.23 81.41 52.23 83.45 56.38 83.45 56.38 86.23 52.23 86.23 52.23 88.27 58.13 88.27 58.13 91.04"></polygon>
            <polygon id="Path" fill="#66C9BA" points="66.95 84.67 66.95 90.99 64.23 90.99 64.23 78.3 71.5 84.96 71.5 78.63 74.23 78.63 74.23 91.33"></polygon>
            <path d="M8.26,102.65 C7.6,102 7.27,101.06 7.27,99.85 L7.27,95.21 L9.19,95.21 L9.19,99.78 C9.19,101.26 9.81,102 11.04,102 C11.64,102 12.1,101.82 12.41,101.46 C12.73,101.1 12.88,100.54 12.88,99.77 L12.88,95.2 L14.77,95.2 L14.77,99.84 C14.77,101.06 14.44,101.99 13.78,102.64 C13.12,103.29 12.2,103.62 11.02,103.62 C9.84,103.63 8.92,103.31 8.26,102.65" id="Path" fill="#002B49"></path>
            <polygon id="Path" fill="#002B49" points="24.5 95.21 24.5 103.49 22.93 103.49 18.8 98.46 18.8 103.49 16.9 103.49 16.9 95.21 18.49 95.21 22.61 100.23 22.61 95.21"></polygon>
            <rect id="Rectangle" fill="#002B49" x="27.17" y="95.21" width="1.92" height="8.28"></rect>
            <polygon id="Path" fill="#002B49" points="39.9 95.21 36.32 103.49 34.42 103.49 30.86 95.21 32.93 95.21 35.44 101.13 37.99 95.21"></polygon>
            <polygon id="Path" fill="#002B49" points="47.71 101.96 47.71 103.49 41.3 103.49 41.3 95.21 47.55 95.21 47.55 96.75 43.2 96.75 43.2 98.54 47.05 98.54 47.05 100.03 43.2 100.03 43.2 101.96"></polygon>
            <path d="M55.22,103.49 L53.63,101.19 L51.86,101.19 L51.86,103.49 L49.94,103.49 L49.94,95.21 L53.52,95.21 C54.17,95.19 54.83,95.32 55.43,95.58 C55.94,95.8 56.37,96.16 56.68,96.62 C56.98,97.1 57.13,97.65 57.12,98.22 C57.16,99.36 56.48,100.41 55.42,100.83 L57.28,103.49 L55.22,103.49 Z M54.73,97.14 C54.43,96.89 53.99,96.77 53.42,96.77 L51.86,96.77 L51.86,99.66 L53.42,99.66 C53.99,99.66 54.43,99.53 54.73,99.28 C55.04,99.01 55.2,98.62 55.18,98.22 C55.18,97.75 55.03,97.4 54.73,97.14 L54.73,97.14 Z" id="Shape" fill="#002B49"></path>
            <path d="M60.17,103.37 C59.64,103.23 59.14,103 58.7,102.68 L59.35,101.24 C59.74,101.52 60.17,101.73 60.62,101.87 C61.09,102.03 61.59,102.11 62.09,102.11 C62.63,102.11 63.04,102.03 63.3,101.87 C63.54,101.74 63.69,101.5 63.69,101.23 C63.69,101.04 63.61,100.86 63.46,100.74 C63.28,100.6 63.08,100.49 62.87,100.43 C62.63,100.35 62.3,100.26 61.89,100.18 C61.37,100.06 60.85,99.91 60.34,99.73 C59.94,99.58 59.58,99.33 59.3,99.01 C59.01,98.68 58.87,98.24 58.87,97.68 C58.87,97.22 59,96.76 59.26,96.37 C59.55,95.95 59.96,95.63 60.44,95.44 C61.05,95.2 61.7,95.08 62.36,95.1 C62.88,95.1 63.4,95.16 63.91,95.29 C64.38,95.4 64.82,95.58 65.24,95.83 L64.64,97.28 C63.95,96.87 63.16,96.64 62.35,96.63 C61.81,96.63 61.42,96.72 61.16,96.89 C60.92,97.03 60.78,97.3 60.78,97.58 C60.78,97.86 60.93,98.08 61.22,98.22 C61.66,98.4 62.11,98.54 62.57,98.63 C63.1,98.75 63.61,98.9 64.12,99.08 C64.52,99.23 64.87,99.47 65.16,99.79 C65.44,100.11 65.58,100.55 65.58,101.11 C65.58,101.57 65.44,102.02 65.18,102.41 C64.88,102.83 64.47,103.15 63.99,103.34 C63.38,103.58 62.72,103.7 62.06,103.68 C61.43,103.64 60.79,103.55 60.17,103.37" id="Path" fill="#002B49"></path>
            <rect id="Rectangle" fill="#002B49" x="67.6" y="95.21" width="1.92" height="8.28"></rect>
            <polygon id="Path" fill="#002B49" points="73.91 96.77 71.26 96.77 71.26 95.21 78.48 95.21 78.48 96.77 75.83 96.77 75.83 103.49 73.91 103.49"></polygon>
            <polygon id="Path" fill="#002B49" points="84.78 100.56 84.78 103.49 82.86 103.49 82.86 100.54 79.66 95.21 81.69 95.21 83.91 98.89 86.12 95.21 88 95.21"></polygon>
        </g>
    </g>
</svg>