<?xml version="1.0" encoding="UTF-8"?>
<svg version="1.1" xmlns="http://www.w3.org/2000/svg" width="1487" height="539">
<path d="M0 0 C490.71 0 981.42 0 1487 0 C1487 177.87 1487 355.74 1487 539 C996.29 539 505.58 539 0 539 C0 361.13 0 183.26 0 0 Z " fill="#FDFEFE" transform="translate(0,0)"/>
<path d="M0 0 C116.17712094 0 116.17712094 0 136.75 19.1875 C147.21493792 30.23382337 151.59947931 42.60828235 151.22265625 57.6484375 C150.91599143 62.26455003 150.24954614 66.54759421 149 71 C148.75507813 71.88171875 148.51015625 72.7634375 148.2578125 73.671875 C142.97473519 90.22240038 129.93395523 102.00031177 115 110 C106.49295775 114 106.49295775 114 102 114 C102 114.66 102 115.32 102 116 C103.30453125 116.11214844 104.6090625 116.22429687 105.953125 116.33984375 C122.48974589 118.19843582 138.35752212 126.10818295 149.7734375 138.15625 C159.7927495 150.95284498 162.31697525 165.17324996 161 181 C158.80980906 196.88941411 151.69461616 209.9211532 139.328125 220.2265625 C133.55587079 224.58021186 127.62429015 228.1148925 121 231 C120.24203125 231.34675781 119.4840625 231.69351563 118.703125 232.05078125 C99.38184292 240.01927179 78.47867283 239.49745764 58 239 C58 234.38 58 229.76 58 225 C59.65386719 224.89042969 61.30773437 224.78085937 63.01171875 224.66796875 C87.64121373 223.78257803 87.64121373 223.78257803 108.6796875 212.3125 C110 211 110 211 112 211 C112.28101563 210.4121875 112.56203125 209.824375 112.8515625 209.21875 C113.90630606 207.18101414 115.07593057 205.38654669 116.375 203.5 C124.17024676 191.2074955 125.8856448 175.5187174 123.3515625 161.3828125 C119.74857686 148.54140213 112.58481336 138.08519947 101.0390625 131.24609375 C92.44505899 126.75426572 84.60078288 124.77433932 75 124.375 C74.22527344 124.33632812 73.45054688 124.29765625 72.65234375 124.2578125 C70.76856585 124.16478643 68.88431744 124.08136825 67 124 C66.49307308 122.4188708 65.99473557 120.83498617 65.5 119.25 C65.2215625 118.36828125 64.943125 117.4865625 64.65625 116.578125 C64 114 64 114 64 110 C64.84820312 109.91363281 65.69640625 109.82726562 66.5703125 109.73828125 C82.26226719 107.85869547 95.18036746 103.44751192 105.46875 91.0546875 C114.11730988 79.44973215 115.14781788 64.98781444 114 51 C112.35363204 40.19123641 108.38365 30.29799748 100 23 C80.52416651 10.42417609 56.17239678 14.51563713 34 14 C34 88.25 34 162.5 34 239 C22.78 239 11.56 239 0 239 C0 160.13 0 81.26 0 0 Z " fill="#0D1F57" transform="translate(38,37)"/>
<path d="M0 0 C114.52830717 0 114.52830717 0 138.0625 21.8671875 C152.38372246 37.63208157 157.96325355 56.09248917 157.34375 77.09765625 C156.44249883 93.68389646 148.99313624 108.77316511 138 121 C137.47019531 121.62261719 136.94039062 122.24523437 136.39453125 122.88671875 C121.2180962 139.56206097 95.6538559 145.82064418 74 148 C70.32492364 148.13267424 66.67472507 148.13255521 63 148 C61.99539469 145.87717331 60.99644398 143.75166979 60 141.625 C59.443125 140.44164062 58.88625 139.25828125 58.3125 138.0390625 C57 135 57 135 57 133 C57.589021 132.98018066 58.17804199 132.96036133 58.78491211 132.93994141 C61.50282351 132.84356723 64.22008103 132.73435288 66.9375 132.625 C68.32678711 132.57859375 68.32678711 132.57859375 69.74414062 132.53125 C84.92152682 131.89220216 96.57957494 127.93788482 107.1875 116.8125 C120.50685863 101.12120079 121.26877582 79.93790994 119.71484375 60.41796875 C117.87891564 46.8178411 111.32128343 34.05264537 100.8125 25.125 C81.78540768 11.46872204 55.67679208 14.5704419 34 14 C34 88.25 34 162.5 34 239 C22.78 239 11.56 239 0 239 C0 160.13 0 81.26 0 0 Z " fill="#0D1F57" transform="translate(1103,37)"/>
<path d="M0 0 C0 6.93 0 13.86 0 21 C-2.145 19.80375 -4.29 18.6075 -6.5 17.375 C-25.09862467 7.30340859 -48.91665064 -0.22308154 -70.08203125 5.98046875 C-72.9047089 7.13439357 -75.41608879 8.38912923 -78 10 C-79.11375 10.61875 -80.2275 11.2375 -81.375 11.875 C-89.21260445 18.21972742 -93.41479366 26.01468156 -95 36 C-95.9390594 47.37603388 -94.94838173 57.29240271 -87.9453125 66.78515625 C-85.72223177 69.33516062 -83.4680231 71.68552614 -81 74 C-80.43249023 74.53407471 -79.86498047 75.06814941 -79.28027344 75.6184082 C-74.19191473 80.25542155 -68.76117661 83.89081182 -62.875 87.4375 C-61.94993652 88.00315674 -61.02487305 88.56881348 -60.07177734 89.15161133 C-54.97176861 92.25536642 -49.83010101 95.2640871 -44.625 98.1875 C-22.73599573 110.54712756 -0.73284798 125.87130959 6.4309082 151.28930664 C7.44116807 156.10136812 7.48697507 160.84843456 7.4375 165.75 C7.42614014 167.33107544 7.42614014 167.33107544 7.41455078 168.9440918 C7.04363032 186.56010632 0.61790662 200.66979809 -12 213 C-31.398001 231.39810404 -57.36575806 233.72317806 -82.83789062 233.140625 C-89.73842647 232.83374509 -96.29561121 231.59726236 -103 230 C-103.97501465 229.7831958 -103.97501465 229.7831958 -104.96972656 229.56201172 C-114.07552583 227.52974856 -121.80688035 224.45058351 -130 220 C-130 213.4 -130 206.8 -130 200 C-128.02 201.19625 -126.04 202.3925 -124 203.625 C-109.17456698 212.26287137 -92.72329561 217.60496163 -75.5 217.4375 C-73.85753296 217.42614014 -73.85753296 217.42614014 -72.18188477 217.41455078 C-60.69014323 217.17958793 -51.61984982 215.02599795 -43 207 C-42.31035156 206.36320313 -41.62070312 205.72640625 -40.91015625 205.0703125 C-31.51186765 195.51451068 -28.70983205 183.25318915 -28.68310547 170.234375 C-28.86730365 160.22854786 -32.41568089 152.44783636 -39 145 C-39.54011719 144.36707031 -40.08023438 143.73414063 -40.63671875 143.08203125 C-49.57262604 133.37077409 -61.72781093 127.13826405 -72.95947266 120.48388672 C-122.63620435 91.04066818 -122.63620435 91.04066818 -130 63 C-133.06187948 45.43015466 -130.73117174 30.08047082 -121 15 C-110.20009377 0.34446506 -94.22570928 -7.30590835 -76.59765625 -10.49609375 C-50.99856874 -13.80164661 -23.69597356 -10.2074963 0 0 Z " fill="#0E2058" transform="translate(1054,46)"/>
<path d="M0 0 C90.95650826 0 90.95650826 0 110.703125 18.55078125 C119.86180557 28.31692532 122.57091071 39.6676496 122.21484375 52.78515625 C121.33654449 65.92770704 114.51815765 77.12123004 105 86 C89.46141732 99 89.46141732 99 83 99 C90.47116441 112.80289519 98.25202893 126.40334565 106.20166016 139.93554688 C109.14488609 144.95093811 112.07190201 149.97576676 115 155 C118.65668915 161.27387909 122.31811347 167.54487578 125.9921875 173.80859375 C126.641875 174.91783203 127.2915625 176.02707031 127.9609375 177.16992188 C129.21699002 179.31418296 130.47474649 181.45744702 131.734375 183.59960938 C132.29382813 184.55544922 132.85328125 185.51128906 133.4296875 186.49609375 C133.92710449 187.34357178 134.42452148 188.1910498 134.93701172 189.06420898 C136 191 136 191 136 192 C131.58984615 192.32371265 127.18610257 192.55815776 122.76757812 192.71411133 C121.26895759 192.77913545 119.77115122 192.86761159 118.27539062 192.98071289 C113.25289924 193.35070309 108.87720767 193.37695897 104 192 C100.1220282 188.18648917 98.20813233 183.87958991 96 179 C94.8561748 176.99590425 93.69011356 175.00430242 92.5 173.02734375 C91.33130651 170.99856205 90.16470616 168.96857341 89 166.9375 C88.36408936 165.8326123 87.72817871 164.72772461 87.07299805 163.58935547 C83.66527832 157.66569979 80.2749908 151.73221696 76.89453125 145.79296875 C75.87190486 143.99718824 74.84920024 142.20145234 73.82641602 140.40576172 C73.15253933 139.22221812 72.47903435 138.0384628 71.8059082 136.85449219 C66.84066249 128.12497639 61.75743047 119.47760356 56.45239258 110.94970703 C55.99372803 110.20188965 55.53506348 109.45407227 55.0625 108.68359375 C54.66160156 108.03962646 54.26070312 107.39565918 53.84765625 106.73217773 C53 105 53 105 53 102 C54.11117187 101.45472656 55.22234375 100.90945313 56.3671875 100.34765625 C71.56817311 92.7138242 84.01482597 83.51363925 90 67 C93.91018751 55.11471783 93.07555855 42.40434144 88 31 C82.18667963 20.94099621 74.03635289 16.15324368 63 13 C45.675 12.505 45.675 12.505 28 12 C28 71.4 28 130.8 28 192 C18.76 192 9.52 192 0 192 C0 128.64 0 65.28 0 0 Z " fill="#0E2158" transform="translate(790,306)"/>
<path d="M0 0 C4.29 0 8.58 0 13 0 C23.65189004 26.84856642 34.1368061 53.75988163 44.56054688 80.69775391 C48.14113381 89.94986621 51.729052 99.1991353 55.31652832 108.44857788 C57.29466301 113.54893141 59.27230625 118.64947549 61.25 123.75 C62.04166432 125.79166758 62.83333099 127.83333424 63.625 129.875 C68.375 142.125 68.375 142.125 69.56222534 145.18682861 C70.35477434 147.23074611 71.14735659 149.27465071 71.93997192 151.31854248 C73.90591037 156.38816683 75.87129099 161.45800596 77.83544922 166.52832031 C81.55499286 176.12822527 85.28058018 185.72567545 89.02435303 195.31616211 C90.79930199 199.86402522 92.57127825 204.41304389 94.34301758 208.9621582 C95.19129922 211.13770741 96.0410492 213.31268471 96.89233398 215.48706055 C98.06992466 218.49516115 99.24251699 221.5051659 100.4140625 224.515625 C100.76413361 225.40594421 101.11420471 226.29626343 101.47488403 227.21356201 C101.79464203 228.03801819 102.11440002 228.86247437 102.44384766 229.71191406 C102.72185211 230.4234967 102.99985657 231.13507935 103.2862854 231.8682251 C104 234 104 234 105 239 C93.45 239 81.9 239 70 239 C61.54692125 218.43504723 53.34148832 197.77713617 45.17504883 177.09692383 C44.50002068 175.38896385 44.50002068 175.38896385 43.81135559 173.64649963 C42.96017452 171.49259286 42.10985306 169.33834611 41.26054382 167.18370056 C39.64062307 163.08493054 38.01791405 159.00317755 36.21875 154.97949219 C35 152 35 152 35 149 C10.91 149.33 -13.18 149.66 -38 150 C-41.3825 158.765625 -44.765 167.53125 -48.25 176.5625 C-50.26940443 181.7930178 -52.28889875 187.02350067 -54.30859375 192.25390625 C-57.27076329 199.92514926 -60.23164975 207.59687285 -63.18258667 215.27244568 C-64.30927145 218.20270913 -65.43771366 221.13229354 -66.56652832 224.06173706 C-67.06235491 225.35004642 -67.55723397 226.63872087 -68.05114746 227.92776489 C-68.71534714 229.66107698 -69.38294027 231.39308764 -70.05078125 233.125 C-70.40825439 234.05570313 -70.76572754 234.98640625 -71.1340332 235.9453125 C-72 238 -72 238 -73 239 C-74.41570123 239.08651611 -75.835595 239.10704904 -77.25390625 239.09765625 C-78.10791016 239.09443359 -78.96191406 239.09121094 -79.84179688 239.08789062 C-80.73962891 239.07951172 -81.63746094 239.07113281 -82.5625 239.0625 C-83.46419922 239.05798828 -84.36589844 239.05347656 -85.29492188 239.04882812 C-87.53001314 239.03700225 -89.76497437 239.0205222 -92 239 C-87.21362782 225.9493711 -82.04195433 213.06591487 -76.8125 200.1875 C-75.96321048 198.09137683 -75.11409065 195.99518489 -74.26513672 193.89892578 C-70.68296477 185.05740383 -67.09315571 176.21900999 -63.48828125 167.38671875 C-62.745177 165.56587769 -62.745177 165.56587769 -61.98706055 163.70825195 C-61.12159159 161.59026529 -60.25472728 159.47284785 -59.38598633 157.35620117 C-56.83383414 151.12065225 -54.40020634 144.84817528 -52.02880859 138.54150391 C-51 136 -51 136 -50 135 C-47.53555943 134.90499452 -45.09925374 134.87442015 -42.63452148 134.88647461 C-41.86384338 134.88632858 -41.09316528 134.88618256 -40.2991333 134.8860321 C-37.73975861 134.8867314 -35.1804558 134.89452455 -32.62109375 134.90234375 C-30.85132385 134.90420787 -29.08155344 134.9056318 -27.31178284 134.90663147 C-22.64448634 134.91045712 -17.97722077 134.9202878 -13.30993652 134.93133545 C-8.55102965 134.94154856 -3.79211779 134.94612887 0.96679688 134.95117188 C10.31121153 134.96191003 19.6556032 134.97898701 29 135 C28.52935623 133.87015686 28.05871246 132.74031372 27.57380676 131.57623291 C26.94468461 130.05900519 26.31567773 128.54172967 25.68676758 127.02441406 C25.37793892 126.28389801 25.06911026 125.54338196 24.75092316 124.78042603 C22.67919323 119.77379505 20.78121416 114.73031419 19.01171875 109.609375 C18.73838715 108.82389282 18.46505554 108.03841064 18.18344116 107.22912598 C17.96999054 106.61017456 17.75653992 105.99122314 17.53662109 105.35351562 C15.11066899 98.40831757 12.42270794 91.56149283 9.76269531 84.70343018 C8.78667947 82.18333069 7.81645453 79.66106589 6.84765625 77.13818359 C4.05739362 69.87742544 1.26100974 62.62058663 -1.63166809 55.39990234 C-2.68790899 52.75858734 -3.73015008 50.11187408 -4.77041626 47.4642334 C-5.47901819 45.67789378 -6.20832755 43.8998118 -6.93823242 42.12207031 C-11.59412069 30.23069201 -9.00244054 23.03510546 -4.4375 11.4375 C-3.80038086 9.78137695 -3.80038086 9.78137695 -3.15039062 8.09179688 C-2.10976596 5.39084971 -1.05619466 2.69489668 0 0 Z " fill="#0E2058" transform="translate(1343,37)"/>
<path d="M0 0 C4.29 0 8.58 0 13 0 C22.21877441 23.17394052 31.26789507 46.41070158 40.23153687 69.68447876 C46.58656115 86.18329077 52.97957064 102.66619311 59.4375 119.125 C64.98838852 133.272427 70.49491289 147.43554147 75.9375 161.625 C80.17069492 172.66091975 84.42225792 183.68821167 88.75 194.6875 C89.18086914 195.78328369 89.61173828 196.87906738 90.05566406 198.00805664 C92.13559182 203.29001983 94.22469482 208.56820249 96.32669067 213.84141541 C97.36611729 216.4511225 98.40173027 219.06233438 99.43688965 221.67373657 C100.1705834 223.51993271 100.90993324 225.36387788 101.64941406 227.20776367 C102.08866211 228.31611572 102.52791016 229.42446777 102.98046875 230.56640625 C103.37129639 231.54552979 103.76212402 232.52465332 104.16479492 233.53344727 C105 236 105 236 105 239 C93.45 239 81.9 239 70 239 C63.03440137 222.05384214 56.19975515 205.05793162 49.43026733 188.03256226 C48.48024812 185.6446323 47.52878147 183.25727767 46.57583618 180.87051392 C45.21300496 177.45570145 43.85582313 174.0386938 42.5 170.62109375 C42.09097946 169.59891754 41.68195892 168.57674133 41.26054382 167.52359009 C40.87550186 166.54957245 40.4904599 165.57555481 40.09375 164.57202148 C39.76052734 163.73412582 39.42730469 162.89623016 39.08398438 162.03294373 C37.55178445 157.74591133 36.30818366 153.36061222 35 149 C10.91 149.33 -13.18 149.66 -38 150 C-41.3825 158.765625 -44.765 167.53125 -48.25 176.5625 C-50.26940443 181.7930178 -52.28889875 187.02350067 -54.30859375 192.25390625 C-57.27076329 199.92514926 -60.23164975 207.59687285 -63.18258667 215.27244568 C-64.30927145 218.20270913 -65.43771366 221.13229354 -66.56652832 224.06173706 C-67.06235491 225.35004642 -67.55723397 226.63872087 -68.05114746 227.92776489 C-68.71534714 229.66107698 -69.38294027 231.39308764 -70.05078125 233.125 C-70.40825439 234.05570313 -70.76572754 234.98640625 -71.1340332 235.9453125 C-72 238 -72 238 -73 239 C-74.41570123 239.08651611 -75.835595 239.10704904 -77.25390625 239.09765625 C-78.10791016 239.09443359 -78.96191406 239.09121094 -79.84179688 239.08789062 C-80.73962891 239.07951172 -81.63746094 239.07113281 -82.5625 239.0625 C-83.46419922 239.05798828 -84.36589844 239.05347656 -85.29492188 239.04882812 C-87.53001314 239.03700225 -89.76497437 239.0205222 -92 239 C-87.31121884 226.22198437 -82.25182818 213.60760961 -77.125 201 C-75.44143183 196.85207961 -73.75949582 192.70349903 -72.078125 188.5546875 C-71.65574554 187.51279266 -71.23336609 186.47089783 -70.79818726 185.39743042 C-67.92238763 178.29677971 -65.07002625 171.18708562 -62.234375 164.0703125 C-61.86194672 163.13604431 -61.48951843 162.20177612 -61.10580444 161.23919678 C-59.33801964 156.80277777 -57.57357176 152.36506271 -55.81298828 147.92578125 C-55.18530314 146.34892577 -54.55754085 144.77210101 -53.9296875 143.1953125 C-53.64518738 142.47473663 -53.36068726 141.75416077 -53.06756592 141.01174927 C-51.11336735 136.11336735 -51.11336735 136.11336735 -50 135 C-47.53555943 134.90499452 -45.09925374 134.87442015 -42.63452148 134.88647461 C-41.86384338 134.88632858 -41.09316528 134.88618256 -40.2991333 134.8860321 C-37.73975861 134.8867314 -35.1804558 134.89452455 -32.62109375 134.90234375 C-30.85132385 134.90420787 -29.08155344 134.9056318 -27.31178284 134.90663147 C-22.64448634 134.91045712 -17.97722077 134.9202878 -13.30993652 134.93133545 C-8.55102965 134.94154856 -3.79211779 134.94612887 0.96679688 134.95117188 C10.31121153 134.96191003 19.6556032 134.97898701 29 135 C28.5258667 133.86127441 28.0517334 132.72254883 27.56323242 131.54931641 C26.93137265 130.02510872 26.29962403 128.50085495 25.66796875 126.9765625 C25.35661987 126.22963135 25.045271 125.4827002 24.7244873 124.71313477 C22.76560967 119.97843119 20.97455516 115.22202001 19.3125 110.375 C16.79101244 103.08587662 14.05852844 95.89085116 11.25994873 88.70349121 C10.49600963 86.73974253 9.73513235 84.77483313 8.97509766 82.80957031 C6.36566861 76.06705309 3.73889585 69.33229884 1.07284546 62.61193848 C-0.24769569 59.27166308 -1.55182547 55.92512026 -2.85302734 52.57727051 C-3.4873968 50.9559158 -4.12872962 49.33726657 -4.77734375 47.72155762 C-5.68881808 45.44866306 -6.57522745 43.16735248 -7.45703125 40.8828125 C-7.73033768 40.21833099 -8.0036441 39.55384949 -8.28523254 38.86923218 C-11.0329588 31.5914584 -9.70060447 25.00296644 -6.93359375 17.87109375 C-6.53076172 16.81728516 -6.12792969 15.76347656 -5.71289062 14.67773438 C-5.29201172 13.60845703 -4.87113281 12.53917969 -4.4375 11.4375 C-3.80038086 9.78137695 -3.80038086 9.78137695 -3.15039062 8.09179688 C-2.10976596 5.39084971 -1.05619466 2.69489668 0 0 Z " fill="#0E2057" transform="translate(304,37)"/>
<path d="M0 0 C11.22 0 22.44 0 34 0 C34 78.87 34 157.74 34 239 C22.78 239 11.56 239 0 239 C0 202.04 0 165.08 0 127 C-27.72 127 -55.44 127 -84 127 C-89 115 -89 115 -89 113 C-59.63 113 -30.26 113 0 113 C0 75.71 0 38.42 0 0 Z " fill="#0C1F56" transform="translate(755,37)"/>
<path d="M0 0 C35.31 0 70.62 0 107 0 C107 78.87 107 157.74 107 239 C95.78 239 84.56 239 73 239 C73 164.75 73 90.5 73 14 C50.89 14 28.78 14 6 14 C2 6 2 6 0 0 Z " fill="#0C1F57" transform="translate(393,37)"/>
<path d="M0 0 C30.48118627 -2.8245674 30.48118627 -2.8245674 38.85351562 1.46044922 C43.30068556 5.32611252 45.96323908 10.22672491 48.61328125 15.42578125 C50.92306021 19.71351178 53.92067184 23.45471503 56.875 27.3125 C58.03689897 28.89360032 59.19571606 30.47696967 60.3515625 32.0625 C64.24952176 37.36491806 68.24694623 42.58922639 72.25 47.8125 C77.06703805 54.10126829 81.79443305 60.42894634 86.35351562 66.90673828 C90.06369435 72.15253591 93.97513643 77.23530457 97.89648438 82.32421875 C102.06619648 87.74728291 106.14325436 93.23287044 110.1875 98.75 C114.06988786 104.04517506 117.9765842 109.31104476 122 114.5 C126.24935931 119.98167351 130.38627188 125.54088638 134.5 131.125 C135.11230469 131.95580078 135.72460938 132.78660156 136.35546875 133.64257812 C138.62595515 136.7319703 140.87287753 139.80931629 143 143 C143.495 72.215 143.495 72.215 144 0 C148.29 0 152.58 0 157 0 C157 63.36 157 126.72 157 192 C144 192 144 192 139.5625 187.6875 C138.4513153 186.10502672 137.34346788 184.51957065 136.27978516 182.90478516 C134.30178335 179.96080002 132.1659914 177.1376662 130.0480957 174.29345703 C128.22507221 171.84147187 126.42005745 169.37698702 124.6171875 166.91015625 C121.25949452 162.3335255 117.83390845 157.81294044 114.375 153.3125 C107.44210054 144.29027675 100.61992829 135.18740395 93.8125 126.0703125 C90.35638657 121.44906993 86.88345651 116.84241533 83.37890625 112.2578125 C76.26593768 102.95269311 69.21120184 93.6147081 62.2902832 84.16577148 C57.26838452 77.32585607 52.12505879 70.58265938 46.9675293 63.84472656 C41.92631719 57.24669644 36.98550115 50.58071779 32.078125 43.8828125 C28.27891378 38.70757717 24.4151827 33.58795518 20.5 28.5 C15.66580757 22.21300632 10.90212663 15.8772033 6.1875 9.5 C5.57003906 8.66791016 4.95257813 7.83582031 4.31640625 6.97851562 C3.75179687 6.21216797 3.1871875 5.44582031 2.60546875 4.65625 C2.10168701 3.97369141 1.59790527 3.29113281 1.07885742 2.58789062 C0 1 0 1 0 0 Z " fill="#0F2158" transform="translate(222,306)"/>
<path d="M0 0 C9.24 0 18.48 0 28 0 C28.0093457 4.03605469 28.01869141 8.07210938 28.02832031 12.23046875 C28.06218351 25.60960737 28.11758616 38.98858547 28.18390274 52.36759949 C28.2235655 60.47423598 28.25602235 68.58077719 28.27099609 76.6875 C28.28407928 83.76047725 28.3112118 90.83324372 28.35461307 97.90610218 C28.37707952 101.64468766 28.39291971 105.38301463 28.39188385 109.12167358 C28.22743582 142.0219399 28.22743582 142.0219399 43.8984375 170.1875 C57.59436408 181.99960024 72.71027799 183.04417455 89.88671875 181.7890625 C99.54525798 180.35225501 110.60487986 175.12468658 116.55078125 167.26171875 C128.76680949 148.19681214 128.61364404 127.81704491 128.60750484 105.91448164 C128.61067526 102.17888355 128.63637731 98.44343463 128.65948486 94.70791626 C128.69973711 87.66428158 128.72031229 80.62073872 128.73345876 73.57700694 C128.74943434 65.54522194 128.78789308 57.51359095 128.82805204 49.48189616 C128.91002877 32.98797136 128.96358588 16.49408912 129 0 C133.29 0 137.58 0 142 0 C142.06970496 17.4558494 142.12311518 34.91164247 142.15543652 52.36759949 C142.17084854 60.47428145 142.19182847 68.58087489 142.22631836 76.6875 C142.25639553 83.76036806 142.27561606 90.83317194 142.28226548 97.90610218 C142.28614702 101.6447069 142.29514802 105.38312817 142.31719017 109.12167358 C142.60042926 159.14210362 142.60042926 159.14210362 124 178 C105.94326214 193.80556975 83.12615352 196.27034527 60 195 C41.13697402 193.39520113 25.6289042 186.20375665 13.07421875 171.80859375 C9.47384283 166.93350847 7.2087276 161.61444305 5 156 C4.52433594 154.87851562 4.52433594 154.87851562 4.0390625 153.734375 C-2.03626578 137.97461254 -0.27039929 119.47395035 -0.20278788 102.92498589 C-0.19013412 99.29623047 -0.18909865 95.66747037 -0.18673706 92.03869629 C-0.18056472 85.19329141 -0.16421253 78.34795178 -0.14403808 71.5025754 C-0.12154545 63.69825083 -0.11065233 55.89392286 -0.10064721 48.08957386 C-0.0798416 32.05967189 -0.04321971 16.02985959 0 0 Z " fill="#0F2259" transform="translate(39,306)"/>
<path d="M0 0 C11.22 0 22.44 0 34 0 C34 78.87 34 157.74 34 239 C22.78 239 11.56 239 0 239 C0 160.13 0 81.26 0 0 Z " fill="#0C1F56" transform="translate(609,37)"/>
<path d="M0 0 C0 5.61 0 11.22 0 17 C-3.3103125 15.14375 -3.3103125 15.14375 -6.6875 13.25 C-21.60954757 5.13495998 -39.72194816 0.91140968 -56.59375 4.8359375 C-65.29244528 8.10893143 -70.48212027 13.28996104 -74.4375 21.625 C-77.41068308 30.05332768 -77.1477611 38.88093191 -74.125 47.25 C-66.3913798 63.37951175 -48.17959264 71.71085672 -33.27734375 80.109375 C-23.97810087 85.47389652 -15.66594502 91.4714375 -8 99 C-7.42507813 99.56203125 -6.85015625 100.1240625 -6.2578125 100.703125 C3.78653447 111.4240342 6.71199167 124.78417767 6.3125 138.99609375 C5.63437902 150.88298937 -0.7700023 162.5829569 -9 171 C-28.67495568 186.95460043 -51.50533462 188.88143166 -75.8125 186.375 C-85.81907626 184.82341851 -95.94216985 181.52891507 -105 177 C-105 171.39 -105 165.78 -105 160 C-103.68 160.86625 -102.36 161.7325 -101 162.625 C-96.46081683 165.34980128 -91.87635862 167.39502417 -86.9375 169.25 C-85.96586914 169.61859131 -85.96586914 169.61859131 -84.97460938 169.99462891 C-70.71780008 175.18184814 -54.69254415 176.82745683 -40.6015625 170.40625 C-32.52442165 166.04022792 -27.8819317 159.37603014 -24.85546875 150.73046875 C-22.61920452 140.9787229 -22.24870528 129.63480086 -27.5859375 120.8984375 C-29.53655517 118.27965246 -31.52015265 116.13382214 -34 114 C-34.48210937 113.51660156 -34.96421875 113.03320312 -35.4609375 112.53515625 C-41.97693308 106.26977589 -49.94223176 102.00255773 -57.65722656 97.40087891 C-98.78984407 72.8053225 -98.78984407 72.8053225 -104.52734375 51.0234375 C-106.6704185 37.31484366 -105.48024268 24.48629145 -97.75 12.6875 C-88.80042009 0.83689101 -76.24405474 -6.26209184 -61.60595703 -8.69091797 C-41.14634592 -11.11754975 -18.68146559 -9.34073279 0 0 Z " fill="#0F2158" transform="translate(1048,314)"/>
<path d="M0 0 C33.33 0 66.66 0 101 0 C99 11 99 11 98 12 C74.9 12 51.8 12 28 12 C28 67.44 28 122.88 28 180 C52.09 180 76.18 180 101 180 C100 187 100 187 98 192 C65.66 192 33.32 192 0 192 C0 128.64 0 65.28 0 0 Z " fill="#0F2259" transform="translate(657,306)"/>
<path d="M0 0 C28.38 0 56.76 0 86 0 C86 63.36 86 126.72 86 192 C76.76 192 67.52 192 58 192 C58 132.6 58 73.2 58 12 C40.18 12 22.36 12 4 12 C0 2 0 2 0 0 Z " fill="#0F2159" transform="translate(1138,306)"/>
<path d="M0 0 C9.9 0 19.8 0 30 0 C32.55821355 5.1164271 34.92056079 10.03691338 36.96875 15.3359375 C37.24121048 16.03103928 37.51367096 16.72614105 37.79438782 17.44230652 C38.38682057 18.95443252 38.97765356 20.46718607 39.56704712 21.98049927 C41.2171441 26.21560965 42.88082017 30.44538953 44.54296875 34.67578125 C44.89880539 35.58220871 45.25464203 36.48863617 45.6212616 37.42253113 C49.96986885 48.48853538 54.39156713 59.52524052 58.8125 70.5625 C59.66270465 72.68618766 60.5128836 74.80988562 61.36303711 76.93359375 C64.3214667 84.32276911 67.28162876 91.71125008 70.24194336 99.09967041 C71.05705542 101.13409003 71.87211939 103.16852892 72.68713379 105.20298767 C73.48506929 107.19472056 74.28316323 109.18638998 75.0814209 111.17799377 C76.99243911 115.94748337 78.89936249 120.71852787 80.796875 125.4934082 C85.21370778 136.60606713 85.21370778 136.60606713 89.79859924 147.65005493 C90.64170756 149.639744 91.47390279 151.63362129 92.30249023 153.62939453 C93.26821374 155.94494499 94.25535694 158.25175145 95.26977539 160.54638672 C97.24792237 165.34510311 98.57199686 168.69869066 96.9296875 173.76171875 C96.30996641 175.18494801 95.667341 176.59846807 95 178 C94.52287726 179.30847057 94.05985241 180.62219605 93.61328125 181.94140625 C92.40885417 185.29427083 91.20442708 188.64713542 90 192 C85.38 192 80.76 192 76 192 C75.43796875 190.55882812 74.8759375 189.11765625 74.296875 187.6328125 C61.27022129 154.31484619 47.90403207 121.13003583 34.474823 87.97265625 C24.59695725 63.5801571 14.81694092 39.14785577 5.08108521 14.69833374 C4.33806972 12.84380485 3.58719962 10.99240965 2.82980347 9.14370728 C2.46243073 8.24332733 2.09505798 7.34294739 1.71655273 6.4152832 C1.38622543 5.61282669 1.05589813 4.81037018 0.71556091 3.9835968 C0 2 0 2 0 0 Z " fill="#0E2058" transform="translate(472,306)"/>
<path d="M0 0 C10.23 0 20.46 0 31 0 C33.18625 3.939375 35.3725 7.87875 37.625 11.9375 C43.42072987 22.37503573 49.24020722 32.79891225 55.07861328 43.21264648 C58.39812002 49.13495897 61.70738939 55.06269492 65 61 C69.02665447 68.25840849 73.07196998 75.50628677 77.125 82.75 C77.68703125 83.75546875 78.2490625 84.7609375 78.828125 85.796875 C79.38242188 86.786875 79.93671875 87.776875 80.5078125 88.796875 C81.03267242 89.75506134 81.55753235 90.71324768 82.09829712 91.70046997 C83.940609 95.00170606 83.940609 95.00170606 86.06356812 97.98190308 C92.75484675 108.10391046 93.06882756 116.62703036 92.78125 128.5234375 C92.76629147 130.36428341 92.75492157 132.20516161 92.74694824 134.04605103 C92.71669728 138.84394424 92.63837658 143.63983699 92.54931641 148.43695068 C92.46683332 153.35092113 92.43080465 158.26522133 92.390625 163.1796875 C92.30534744 172.78746963 92.16487913 182.39325396 92 192 C82.76 192 73.52 192 64 192 C64.04825928 189.68242676 64.09651855 187.36485352 64.14624023 184.97705078 C64.29663685 177.20615057 64.36094619 169.43611079 64.38603115 161.66385078 C64.40371916 156.96369796 64.4478693 152.26730876 64.55883789 147.56835938 C65.09139323 124.06861926 64.25454659 107.06308538 49.91215515 87.69589233 C46.6884677 83.15090848 44.09707606 78.26338058 41.4375 73.375 C36.47007462 64.52633004 31.37321882 55.75721017 26.2434082 47.00195312 C21.0485639 38.12009469 15.97841561 29.17082422 10.93359375 20.203125 C7.76008165 14.56269909 4.53481209 8.95293305 1.29296875 3.3515625 C0 1 0 1 0 0 Z " fill="#0E2158" transform="translate(1291,306)"/>
<path d="M0 0 C8.91 0 17.82 0 27 0 C27 63.36 27 126.72 27 192 C18.09 192 9.18 192 0 192 C0 128.64 0 65.28 0 0 Z " fill="#0C1F56" transform="translate(1088,306)"/>
<path d="M0 0 C8.91 0 17.82 0 27 0 C27 63.36 27 126.72 27 192 C18.09 192 9.18 192 0 192 C0 128.64 0 65.28 0 0 Z " fill="#0C1F57" transform="translate(423,306)"/>
<path d="M0 0 C1.65 1.65 3.3 3.3 5 5 C5.72809624 5.711154 6.45619247 6.42230801 7.20635223 7.15501213 C13.75343579 14.28445311 14.11150876 20.45320593 13.90820312 29.81298828 C13.90594226 31.28242366 13.90722154 32.75186806 13.91174316 34.22129822 C13.91402443 38.18213025 13.86722825 42.1409963 13.8111515 46.10137415 C13.76090021 50.25057471 13.75642289 54.39982797 13.74694824 58.54928589 C13.72215318 66.39402103 13.65660068 74.23785674 13.57615232 82.08219707 C13.48651315 91.01804436 13.44269223 99.95393622 13.40258884 108.8901217 C13.31912693 127.26060391 13.17692687 145.63019643 13 164 C8.71 164 4.42 164 0 164 C0 109.88 0 55.76 0 0 Z " fill="#11245B" transform="translate(223,334)"/>
<path d="M0 0 C4.62 0 9.24 0 14 0 C8.32215256 17.39425262 2.38411346 34.67773891 -3.80377197 51.89703369 C-7.95390655 63.44682798 -12.06939209 75.00784353 -16.12890625 86.58984375 C-16.34855545 87.21646219 -16.56820465 87.84308064 -16.79450989 88.48868752 C-19.18213748 95.30152488 -21.56541929 102.11587675 -23.94677734 108.9309082 C-28.86432572 122.99130987 -33.86675098 137.01682693 -39 151 C-40.88614077 148.17078885 -42.33096414 145.46020717 -43.75 142.375 C-44.21921875 141.39273438 -44.6884375 140.41046875 -45.171875 139.3984375 C-46.89861556 132.31228521 -43.37914488 124.7257184 -41.05078125 118.0078125 C-40.61706711 116.73806076 -40.61706711 116.73806076 -40.17459106 115.44265747 C-39.22541417 112.6684138 -38.26913782 109.89667891 -37.3125 107.125 C-36.63846799 105.1612307 -35.96472633 103.19736172 -35.29125977 101.23339844 C-28.58694063 81.70790385 -21.78308392 62.21691568 -14.95739746 42.73358154 C-13.28536981 37.95957273 -11.61547292 33.18481855 -9.9453125 28.41015625 C-6.63215569 18.9394219 -3.31682136 9.46945153 0 0 Z " fill="#102259" transform="translate(617,306)"/>
<path d="M0 0 C1.9921875 0.09765625 1.9921875 0.09765625 4.0078125 0.3515625 C4.69617187 0.39667969 5.38453125 0.44179688 6.09375 0.48828125 C7.77725027 0.60519099 9.45621301 0.78458546 11.1328125 0.9765625 C6.71175183 9.17174977 2.14027217 17.27440366 -2.4921875 25.3515625 C-3.20380236 26.59417661 -3.91530785 27.83685336 -4.62670898 29.07958984 C-6.04773442 31.56177731 -7.46926057 34.04367697 -8.89111328 36.52539062 C-10.6136035 39.53368341 -12.3333463 42.54350687 -14.05078125 45.5546875 C-20.86778717 57.5066698 -27.73504698 69.42919968 -34.6171875 81.34375 C-37.04518928 85.54830456 -39.46348873 89.75807116 -41.8671875 93.9765625 C-42.5271875 93.9765625 -43.1871875 93.9765625 -43.8671875 93.9765625 C-45.41015625 92.18359375 -45.41015625 92.18359375 -47.0546875 89.7890625 C-47.60511719 89.01175781 -48.15554688 88.23445313 -48.72265625 87.43359375 C-50.1682787 84.33019266 -49.78397719 83.24093402 -48.8671875 79.9765625 C-47.9243673 78.01107188 -46.90691178 76.08058969 -45.83984375 74.1796875 C-45.21779053 73.06513184 -44.5957373 71.95057617 -43.95483398 70.80224609 C-43.28004374 69.61020515 -42.60498911 68.41831383 -41.9296875 67.2265625 C-41.23796214 65.99452815 -40.54664003 64.76226732 -39.85571289 63.52978516 C-35.87408258 56.44435325 -31.81839995 49.40514915 -27.65551758 42.42456055 C-23.24109367 34.99429699 -19.05680331 27.43478502 -14.86303711 19.87841797 C-13.74581492 17.87001884 -12.61934511 15.8667312 -11.48291016 13.86914062 C-10.40745389 11.94378465 -9.37523146 9.99362491 -8.38818359 8.02148438 C-4.81015877 1.21468656 -4.81015877 1.21468656 0 0 Z " fill="#102259" transform="translate(1435.8671875,305.0234375)"/>
<path d="M0 0 C17.82 0 35.64 0 54 0 C54 4.62 54 9.24 54 14 C36.18 14 18.36 14 0 14 C0 9.38 0 4.76 0 0 Z " fill="#0C1E56" transform="translate(524,37)"/>
<path d="M0 0 C14.52 0 29.04 0 44 0 C44 3.96 44 7.92 44 12 C29.48 12 14.96 12 0 12 C0 8.04 0 4.08 0 0 Z " fill="#13265C" transform="translate(1243,306)"/>
<path d="M0 0 C13.53 0 27.06 0 41 0 C41 3.96 41 7.92 41 12 C28.79 12 16.58 12 4 12 C0 3 0 3 0 0 Z " fill="#12255C" transform="translate(703,396)"/>
<path d="M0 0 C0.33 0.66 0.66 1.32 1 2 C2.32 1.67 3.64 1.34 5 1 C2.0173737 6.7266425 -1.62294157 11.26638344 -6 16 C-6.93423645 12.98968256 -7.04449911 12.13349732 -6 9 C-5.34 9 -4.68 9 -4 9 C-3.71125 7.88625 -3.4225 6.7725 -3.125 5.625 C-2 2 -2 2 0 0 Z " fill="#EEF2F3" transform="translate(156,464)"/>
<path d="M0 0 C1.46132217 2.92264434 2.34099246 4.92463146 3 8 C2.0925 8.391875 1.185 8.78375 0.25 9.1875 C-3.14118394 11.0787372 -4.79032837 12.8554673 -7 16 C-7.66 15.67 -8.32 15.34 -9 15 C-6.03 10.05 -3.06 5.1 0 0 Z " fill="#182A5F" transform="translate(1431,308)"/>
<path d="M0 0 C3.5 0.1875 3.5 0.1875 7 1 C9.20192224 4.30288336 9.23959968 5.27462727 9.1953125 9.10546875 C9.18564453 10.57983398 9.18564453 10.57983398 9.17578125 12.08398438 C9.15902344 13.10814453 9.14226562 14.13230469 9.125 15.1875 C9.11597656 16.22326172 9.10695313 17.25902344 9.09765625 18.32617188 C9.0740786 20.88434685 9.0411703 23.44205748 9 26 C8.67 26 8.34 26 8 26 C8 19.07 8 12.14 8 5 C6.35 4.67 4.7 4.34 3 4 C1.3207762 3.36562656 -0.35008418 2.70710678 -2 2 C-1.34 1.34 -0.68 0.68 0 0 Z " fill="#C5D2D9" transform="translate(1046,41)"/>
<path d="M0 0 C0 0.66 0 1.32 0 2 C0.66 2.33 1.32 2.66 2 3 C0.7934375 3.433125 0.7934375 3.433125 -0.4375 3.875 C-3.1326468 4.73262568 -3.1326468 4.73262568 -4 7 C-6.64 6.67 -9.28 6.34 -12 6 C-12 5.34 -12 4.68 -12 4 C-10.3767313 3.3291288 -8.75132422 2.66342971 -7.125 2 C-6.22007812 1.62875 -5.31515625 1.2575 -4.3828125 0.875 C-2 0 -2 0 0 0 Z " fill="#E2E9ED" transform="translate(152,147)"/>
<path d="M0 0 C2.25245881 2.68841859 3.88213958 4.64641875 5 8 C5.66 8.33 6.32 8.66 7 9 C6.071875 8.835 5.14375 8.67 4.1875 8.5 C1.04378647 7.92251612 1.04378647 7.92251612 -2 8 C-2.33 7.01 -2.66 6.02 -3 5 C-2.34 5 -1.68 5 -1 5 C-0.67 3.35 -0.34 1.7 0 0 Z " fill="#EEF2F2" transform="translate(1387,391)"/>
<path d="M0 0 C-1.98 0.99 -1.98 0.99 -4 2 C-4 2.66 -4 3.32 -4 4 C-7.05847848 4.54372951 -9.88772805 5 -13 5 C-13.33 4.01 -13.66 3.02 -14 2 C-12.23225581 1.46877637 -10.46065917 0.95035927 -8.6875 0.4375 C-7.70136719 0.14746094 -6.71523438 -0.14257812 -5.69921875 -0.44140625 C-3 -1 -3 -1 0 0 Z " fill="#DDE5E8" transform="translate(1021,497)"/>
<path d="M0 0 C3.875 4.75 3.875 4.75 5 7 C5.99 7.66 6.98 8.32 8 9 C7.01 10.32 6.02 11.64 5 13 C4.34 12.67 3.68 12.34 3 12 C2.66666667 10.66666667 2.33333333 9.33333333 2 8 C1.34 7.67 0.68 7.34 0 7 C0 4.69 0 2.38 0 0 Z " fill="#F0F3F3" transform="translate(889,490)"/>
<path d="M0 0 C2.31 0.66 4.62 1.32 7 2 C6.814375 2.61875 6.62875 3.2375 6.4375 3.875 C5.76313824 6.04160178 5.76313824 6.04160178 7 8 C6.34 8 5.68 8 5 8 C4.67 8.99 4.34 9.98 4 11 C2.68 7.37 1.36 3.74 0 0 Z " fill="#EFF2F4" transform="translate(552,431)"/>
<path d="M0 0 C2.97 1.65 5.94 3.3 9 5 C5.71299843 6.64350079 3.52069985 7.41321669 0 8 C0 5.36 0 2.72 0 0 Z " fill="#16285E" transform="translate(924,246)"/>
<path d="M0 0 C0.66 0.33 1.32 0.66 2 1 C1.9278125 1.62648437 1.855625 2.25296875 1.78125 2.8984375 C1.6884375 3.71570312 1.595625 4.53296875 1.5 5.375 C1.4071875 6.18710938 1.314375 6.99921875 1.21875 7.8359375 C0.96647649 9.96912825 0.96647649 9.96912825 1 12 C-0.32 12 -1.64 12 -3 12 C-3.33 9.69 -3.66 7.38 -4 5 C-3.01 4.67 -2.02 4.34 -1 4 C-0.26676204 1.98491642 -0.26676204 1.98491642 0 0 Z " fill="#E8EEEF" transform="translate(294,60)"/>
<path d="M0 0 C0.99 0.33 1.98 0.66 3 1 C2.06981474 2.46300982 1.13055973 3.92025579 0.1875 5.375 C-0.33457031 6.18710937 -0.85664062 6.99921875 -1.39453125 7.8359375 C-3 10 -3 10 -6 12 C-5.67 10.68 -5.34 9.36 -5 8 C-4.34 8 -3.68 8 -3 8 C-3.2475 7.4225 -3.495 6.845 -3.75 6.25 C-3.8325 5.5075 -3.915 4.765 -4 4 C-2.0625 1.75 -2.0625 1.75 0 0 Z " fill="#15285E" transform="translate(903,377)"/>
<path d="M0 0 C3.67033927 3.27708863 5.69281189 6.71522208 8 11 C5.69 10.67 3.38 10.34 1 10 C1.33 8.68 1.66 7.36 2 6 C1.34 6 0.68 6 0 6 C0 4.02 0 2.04 0 0 Z " fill="#ECF1F2" transform="translate(265,364)"/>
<path d="M0 0 C0.66 0.66 1.32 1.32 2 2 C1.9375 4.375 1.9375 4.375 1 7 C-3.21621622 11 -3.21621622 11 -6 11 C-4.54955729 6.89041233 -2.48889248 3.56741255 0 0 Z " fill="#172A5E" transform="translate(1404,356)"/>
<path d="M0 0 C0.99 0.66 1.98 1.32 3 2 C3 2.99 3 3.98 3 5 C0.03 5.66 -2.94 6.32 -6 7 C-5.67 6.01 -5.34 5.02 -5 4 C-2.4375 2.8125 -2.4375 2.8125 0 2 C0 1.34 0 0.68 0 0 Z " fill="#EFF2F3" transform="translate(994,257)"/>
<path d="M0 0 C2.96404505 2.80804268 5.44499019 5.18315774 7 9 C4.625 9.125 4.625 9.125 2 9 C0 7 0 7 -0.125 3.375 C-0.08375 2.26125 -0.0425 1.1475 0 0 Z " fill="#15275C" transform="translate(223,334)"/>
<path d="M0 0 C0.66 0 1.32 0 2 0 C1.67 2.31 1.34 4.62 1 7 C0.34 7 -0.32 7 -1 7 C-1 7.66 -1 8.32 -1 9 C-2.98 9.33 -4.96 9.66 -7 10 C-6.57847656 9.44570312 -6.15695312 8.89140625 -5.72265625 8.3203125 C-5.17480469 7.59585938 -4.62695312 6.87140625 -4.0625 6.125 C-3.51722656 5.40570313 -2.97195313 4.68640625 -2.41015625 3.9453125 C-0.96035376 2.05642921 -0.96035376 2.05642921 0 0 Z " fill="#ECF1F2" transform="translate(1247,149)"/>
<path d="M0 0 C0.5859375 1.87890625 0.5859375 1.87890625 1 4 C0.03542166 5.35917857 -0.96854629 6.69084721 -2 8 C-2.71433121 10.64934822 -2.71433121 10.64934822 -3 13 C-4.32 13.33 -5.64 13.66 -7 14 C-5.23570801 9.02790438 -2.6060834 4.56561939 0 0 Z " fill="#E5EBEE" transform="translate(1402,383)"/>
<path d="M0 0 C2.31 0.66 4.62 1.32 7 2 C6.34 3.65 5.68 5.3 5 7 C4.01 6.01 3.02 5.02 2 4 C1.34 5.32 0.68 6.64 0 8 C-1.43088528 5.13822943 -0.59991697 3.06624227 0 0 Z " fill="#F1F5F3" transform="translate(569,473)"/>
<path d="M0 0 C0.33 0.66 0.66 1.32 1 2 C-1.86698342 5.49413605 -3.84150148 7.28836874 -8.3125 7.8125 C-10.1378125 7.9053125 -10.1378125 7.9053125 -12 8 C-8.21087559 5.00027651 -4.11168168 2.52489191 0 0 Z " fill="#E4EBED" transform="translate(1036,263)"/>
<path d="M0 0 C0.66 0.33 1.32 0.66 2 1 C2.36923077 5.55384615 2.36923077 5.55384615 0.5 7.8125 C0.005 8.204375 -0.49 8.59625 -1 9 C-1.99 7.35 -2.98 5.7 -4 4 C-2.68 2.68 -1.36 1.36 0 0 Z " fill="#F0F4F4" transform="translate(1045,255)"/>
<path d="M0 0 C0.99 0.99 1.98 1.98 3 3 C2.34 3 1.68 3 1 3 C1.226875 3.598125 1.45375 4.19625 1.6875 4.8125 C2 7 2 7 0.6875 8.75 C-1 10 -1 10 -3 10 C-2.01 6.7 -1.02 3.4 0 0 Z " fill="#E0E6EA" transform="translate(565,487)"/>
<path d="M0 0 C3.35620271 1.38877354 5.07298728 2.91677965 7 6 C7 6.66 7 7.32 7 8 C6.401875 7.67 5.80375 7.34 5.1875 7 C2.94613529 5.79212012 2.94613529 5.79212012 0 6 C0 4.02 0 2.04 0 0 Z " fill="#14255C" transform="translate(357,441)"/>
<path d="M0 0 C2.31 0.33 4.62 0.66 7 1 C7.33 2.65 7.66 4.3 8 6 C5.0280615 4.87548273 2.66559313 3.77706209 0 2 C0 1.34 0 0.68 0 0 Z " fill="#15285C" transform="translate(977,401)"/>
<path d="M0 0 C1.74834267 2.622514 2.51529754 3.99484478 3 7 C2.67 7.66 2.34 8.32 2 9 C1.01 9 0.02 9 -1 9 C-1.625 6.1875 -1.625 6.1875 -2 3 C-1.34 2.01 -0.68 1.02 0 0 Z " fill="#E8EDF0" transform="translate(483,335)"/>
<path d="M0 0 C2.04119788 1.61594832 4.04072937 3.2856382 6 5 C6 5.66 6 6.32 6 7 C4.35 7.33 2.7 7.66 1 8 C0.67 7.34 0.34 6.68 0 6 C0.66 6 1.32 6 2 6 C1.34 5.01 0.68 4.02 0 3 C0 2.01 0 1.02 0 0 Z " fill="#F2F4F5" transform="translate(1008,422)"/>
<path d="M0 0 C3.25809569 3.25809569 4.86594915 5.95266218 7 10 C7 10.66 7 11.32 7 12 C5.68 11.67 4.36 11.34 3 11 C2.01 7.37 1.02 3.74 0 0 Z " fill="#E1EAEC" transform="translate(1328,372)"/>
<path d="M0 0 C-0.8125 2.4375 -0.8125 2.4375 -2 5 C-2.99 5.33 -3.98 5.66 -5 6 C-5.33 5.01 -5.66 4.02 -6 3 C-6.99 2.34 -7.98 1.68 -9 1 C-2.25 -1.125 -2.25 -1.125 0 0 Z " fill="#E4EAEE" transform="translate(1019,274)"/>
<path d="M0 0 C0.66 0.33 1.32 0.66 2 1 C0.02 1.99 0.02 1.99 -2 3 C-2 3.99 -2 4.98 -2 6 C-2.99 6.33 -3.98 6.66 -5 7 C-5 6.34 -5 5.68 -5 5 C-6.98 5.33 -8.96 5.66 -11 6 C-8.66460191 4.44306794 -6.42031244 3.09799354 -3.9375 1.8125 C-2.89916016 1.26529297 -2.89916016 1.26529297 -1.83984375 0.70703125 C-1.23269531 0.47371094 -0.62554687 0.24039062 0 0 Z " fill="#E3E9EE" transform="translate(167,263)"/>
<path d="M0 0 C-1.5 2.0625 -1.5 2.0625 -4 4 C-6.82406647 4.05928384 -9.20225927 3.55954815 -12 3 C-3.33333333 -1.66666667 -3.33333333 -1.66666667 0 0 Z " fill="#E5EDED" transform="translate(1212,178)"/>
<path d="M0 0 C2.97 1.98 2.97 1.98 6 4 C4.68 4.99 3.36 5.98 2 7 C1.01 6.34 0.02 5.68 -1 5 C-0.67 3.35 -0.34 1.7 0 0 Z " fill="#F1F5F3" transform="translate(141,169)"/>
<path d="M0 0 C0.66 0.33 1.32 0.66 2 1 C1.01 2.485 1.01 2.485 0 4 C1.32 3.67 2.64 3.34 4 3 C3.67 3.99 3.34 4.98 3 6 C2.01 6.33 1.02 6.66 0 7 C-1.32 5.35 -2.64 3.7 -4 2 C-2.125 0.9375 -2.125 0.9375 0 0 Z " fill="#E9EFF0" transform="translate(187,169)"/>
<path d="M0 0 C2.72426311 2.35277269 3.8141763 4.62496331 5 8 C3.125 8.625 3.125 8.625 1 9 C0.34 8.34 -0.32 7.68 -1 7 C-0.625 3.375 -0.625 3.375 0 0 Z " fill="#EBF0F0" transform="translate(1348,407)"/>
<path d="M0 0 C0.66 0.99 1.32 1.98 2 3 C1.67 3.99 1.34 4.98 1 6 C1.33 6.99 1.66 7.98 2 9 C0.35 9.33 -1.3 9.66 -3 10 C-2.01 6.7 -1.02 3.4 0 0 Z " fill="#E1E7EB" transform="translate(621,333)"/>
<path d="M0 0 C0.66 0 1.32 0 2 0 C1.01 2.97 0.02 5.94 -1 9 C-1.99 8.67 -2.98 8.34 -4 8 C-1.125 1.125 -1.125 1.125 0 0 Z " fill="#EAEFF2" transform="translate(214,266)"/>
<path d="M0 0 C0.66 0 1.32 0 2 0 C2.66 1.98 3.32 3.96 4 6 C2.68 6.33 1.36 6.66 0 7 C-1.125 2.25 -1.125 2.25 0 0 Z " fill="#16285E" transform="translate(1362,57)"/>
<path d="M0 0 C3.465 1.98 3.465 1.98 7 4 C5.6875 5.5 5.6875 5.5 4 7 C3.01 7 2.02 7 1 7 C0.67 4.69 0.34 2.38 0 0 Z " fill="#13255C" transform="translate(162,47)"/>
<path d="M0 0 C1.875 0.1875 1.875 0.1875 4 1 C5.25 3.5625 5.25 3.5625 6 6 C3.83125748 5.49396008 2.00032373 5.00016187 0 4 C0 2.68 0 1.36 0 0 Z " fill="#15275D" transform="translate(910,475)"/>
<path d="M0 0 C1.20628008 2.33214148 2.1654738 4.49642139 3 7 C2.01 7.99 1.02 8.98 0 10 C-0.66 9.34 -1.32 8.68 -2 8 C-1.7578125 6.0546875 -1.7578125 6.0546875 -1.125 3.875 C-0.92132812 3.15054687 -0.71765625 2.42609375 -0.5078125 1.6796875 C-0.34023438 1.12539063 -0.17265625 0.57109375 0 0 Z " fill="#E1E7EB" transform="translate(757,309)"/>
<path d="M0 0 C2 4 2 4 2 7 C0 8 0 8 -3 9 C-2.01 6.03 -1.02 3.06 0 0 Z " fill="#E1E7EA" transform="translate(252,221)"/>
<path d="M0 0 C1.32 0.33 2.64 0.66 4 1 C4 1.99 4 2.98 4 4 C0.66666667 7 0.66666667 7 -2 7 C-1.34 4.69 -0.68 2.38 0 0 Z " fill="#1A2D62" transform="translate(251,178)"/>
<path d="M0 0 C2.6855594 2.6855594 3.06049974 5.37621328 4 9 C3.01 9 2.02 9 1 9 C0.08941469 5.92677456 -0.08886184 3.19902639 0 0 Z " fill="#E9EEF0" transform="translate(540,478)"/>
<path d="M0 0 C0.66 0.33 1.32 0.66 2 1 C2.625 3.0625 2.625 3.0625 3 5 C2.01 5.66 1.02 6.32 0 7 C-0.99 6.34 -1.98 5.68 -3 5 C-2.01 3.35 -1.02 1.7 0 0 Z " fill="#ECF0F2" transform="translate(171,472)"/>
<path d="M0 0 C0.66 0 1.32 0 2 0 C3.32 2.64 4.64 5.28 6 8 C4.68 8 3.36 8 2 8 C2 7.01 2 6.02 2 5 C0.56249809 3.31201173 0.56249809 3.31201173 -1 2 C-0.67 1.34 -0.34 0.68 0 0 Z " fill="#1A2D62" transform="translate(890,438)"/>
<path d="M0 0 C2.29633824 3.44450737 2.54016485 5.93812283 3 10 C1.68 9.34 0.36 8.68 -1 8 C-0.67 5.36 -0.34 2.72 0 0 Z " fill="#182A60" transform="translate(1050,429)"/>
<path d="M0 0 C0.61875 0.639375 1.2375 1.27875 1.875 1.9375 C3.82597612 4.03883584 3.82597612 4.03883584 6 5 C5.67 5.99 5.34 6.98 5 8 C2.36 6.02 -0.28 4.04 -3 2 C-2.01 1.34 -1.02 0.68 0 0 Z " fill="#192B61" transform="translate(967,392)"/>
<path d="M0 0 C2.35953094 2.35953094 2.49141413 3.77895617 3 7 C1.35 6.67 -0.3 6.34 -2 6 C-1.49396008 3.83125748 -1.00016187 2.00032373 0 0 Z " fill="#EDF1F2" transform="translate(1139,311)"/>
<path d="M0 0 C3.16115776 1.36983503 3.9927092 1.9890638 6 5 C4.02 4.34 2.04 3.68 0 3 C0 2.01 0 1.02 0 0 Z M2 5 C2.66 5 3.32 5 4 5 C4.33 5.99 4.66 6.98 5 8 C4.01 7.67 3.02 7.34 2 7 C2 6.34 2 5.68 2 5 Z " fill="#16275E" transform="translate(177,167)"/>
<path d="M0 0 C-0.375 2.9375 -0.375 2.9375 -1 6 C-1.99 6.495 -1.99 6.495 -3 7 C-3 6.34 -3 5.68 -3 5 C-3.66 4.67 -4.32 4.34 -5 4 C-5 3.34 -5 2.68 -5 2 C-2 0 -2 0 0 0 Z " fill="#13265C" transform="translate(181,118)"/>
<path d="M0 0 C1.32 0.66 2.64 1.32 4 2 C3.01 2.495 3.01 2.495 2 3 C0.95191959 4.97522846 -0.0520411 6.97481509 -1 9 C-1.66 9 -2.32 9 -3 9 C-2.44271087 5.65626525 -1.64826111 2.96687001 0 0 Z " fill="#DFE5EA" transform="translate(963,67)"/>
<path d="M0 0 C2 3 2 3 1.625 5.1875 C1.41875 5.785625 1.2125 6.38375 1 7 C0.34 7 -0.32 7 -1 7 C-1.33 7.99 -1.66 8.98 -2 10 C-3 8 -3 8 -2.44140625 6.0546875 C-2.15136719 5.33539063 -1.86132812 4.61609375 -1.5625 3.875 C-1.27503906 3.15054687 -0.98757813 2.42609375 -0.69140625 1.6796875 C-0.46324219 1.12539063 -0.23507812 0.57109375 0 0 Z " fill="#D6DDE4" transform="translate(603,384)"/>
<path d="M0 0 C1.32 0.33 2.64 0.66 4 1 C2.25 4.875 2.25 4.875 0 6 C-0.66 5.34 -1.32 4.68 -2 4 C-1.34 2.68 -0.68 1.36 0 0 Z " fill="#15275D" transform="translate(978,321)"/>
<path d="M0 0 C0.66 0 1.32 0 2 0 C3.625 2.5 3.625 2.5 5 5 C3.35 5.66 1.7 6.32 0 7 C-0.93423645 3.98968256 -1.04449911 3.13349732 0 0 Z " fill="#F5F7F4" transform="translate(409,273)"/>
<path d="M0 0 C2.64 1.65 5.28 3.3 8 5 C7.67 5.66 7.34 6.32 7 7 C4.625 6.3125 4.625 6.3125 2 5 C0.6875 2.375 0.6875 2.375 0 0 Z " fill="#E6EBF0" transform="translate(996,175)"/>
<path d="M0 0 C5.75 2.5 5.75 2.5 8 7 C5.03 5.35 2.06 3.7 -1 2 C-0.67 1.34 -0.34 0.68 0 0 Z " fill="#E4EDEE" transform="translate(990,131)"/>
<path d="M0 0 C1.32 0.66 2.64 1.32 4 2 C4 2.66 4 3.32 4 4 C1 6 1 6 -2 6 C-1.34 4.02 -0.68 2.04 0 0 Z " fill="#F2F5F3" transform="translate(1051,65)"/>
<path d="M0 0 C0.99 0.33 1.98 0.66 3 1 C2.625 3.4375 2.625 3.4375 2 6 C1.01 6.495 1.01 6.495 0 7 C-0.66 5.35 -1.32 3.7 -2 2 C-1.34 2 -0.68 2 0 2 C0 1.34 0 0.68 0 0 Z " fill="#EDF1F0" transform="translate(905,456)"/>
<path d="M0 0 C0.66 0.33 1.32 0.66 2 1 C0.92598892 3.91517292 0.22189824 5.77810176 -2 8 C-2.33 6.02 -2.66 4.04 -3 2 C-2.01 2 -1.02 2 0 2 C0 1.34 0 0.68 0 0 Z " fill="#EEF2F1" transform="translate(877,376)"/>
<path d="M0 0 C0 0.99 0 1.98 0 3 C-0.66 3 -1.32 3 -2 3 C-2 3.66 -2 4.32 -2 5 C-2.66 5 -3.32 5 -4 5 C-4.33 5.99 -4.66 6.98 -5 8 C-5.33 6.68 -5.66 5.36 -6 4 C-4.02 2.68 -2.04 1.36 0 0 Z " fill="#E5EBEF" transform="translate(987,320)"/>
<path d="M0 0 C0 3.60777515 -0.9904432 5.06295544 -3 8 C-3.99 8.495 -3.99 8.495 -5 9 C-4.5206753 4.68607774 -3.2542015 2.83430453 0 0 Z " fill="#F2F7F8" transform="translate(1239,159)"/>
<path d="M0 0 C0.33 0 0.66 0 1 0 C1.125 5.75 1.125 5.75 0 8 C-0.66 7.67 -1.32 7.34 -2 7 C-2.625 4.4375 -2.625 4.4375 -3 2 C-2.34 2 -1.68 2 -1 2 C-0.67 1.34 -0.34 0.68 0 0 Z " fill="#DAE2E8" transform="translate(579,452)"/>
<path d="M0 0 C3.465 1.485 3.465 1.485 7 3 C5 5 5 5 1.875 5.125 C0.451875 5.063125 0.451875 5.063125 -1 5 C-0.67 3.35 -0.34 1.7 0 0 Z " fill="#EBEFF0" transform="translate(1032,322)"/>
<path d="M0 0 C0.66 1.65 1.32 3.3 2 5 C-0.31 4.34 -2.62 3.68 -5 3 C-2.25 0 -2.25 0 0 0 Z " fill="#192C62" transform="translate(1023,315)"/>
<path d="M0 0 C0.66 0 1.32 0 2 0 C1.1875 3.4375 1.1875 3.4375 0 7 C-0.99 7.33 -1.98 7.66 -3 8 C-3 6.35 -3 4.7 -3 3 C-2.01 3 -1.02 3 0 3 C0 2.01 0 1.02 0 0 Z " fill="#F3F6F4" transform="translate(1251,270)"/>
<path d="M0 0 C0.99 0.33 1.98 0.66 3 1 C2.34 2.32 1.68 3.64 1 5 C-0.98 5 -2.96 5 -5 5 C-3.35 3.35 -1.7 1.7 0 0 Z " fill="#14285C" transform="translate(1038,257)"/>
<path d="M0 0 C0 3 0 3 -2 6 C-3.32 5.67 -4.64 5.34 -6 5 C-6 4.34 -6 3.68 -6 3 C-4.02 2.01 -2.04 1.02 0 0 Z " fill="#203468" transform="translate(140,254)"/>
<path d="M0 0 C1.9375 0.6875 1.9375 0.6875 4 2 C4.75 4.625 4.75 4.625 5 7 C3.02 6.01 1.04 5.02 -1 4 C-0.67 2.68 -0.34 1.36 0 0 Z " fill="#ECF0F0" transform="translate(259,203)"/>
<path d="M0 0 C4.875 4.75 4.875 4.75 6 7 C3.50638429 5.79618552 1.31856917 4.54571278 -1 3 C-0.67 2.01 -0.34 1.02 0 0 Z " fill="#ECF0F1" transform="translate(149,176)"/>
<path d="M0 0 C0.66 0 1.32 0 2 0 C2.6875 2.3125 2.6875 2.3125 3 5 C1.5625 6.8125 1.5625 6.8125 0 8 C0 7.01 0 6.02 0 5 C-0.185625 4.29875 -0.37125 3.5975 -0.5625 2.875 C-0.706875 2.25625 -0.85125 1.6375 -1 1 C-0.67 0.67 -0.34 0.34 0 0 Z " fill="#F1F4F4" transform="translate(1229,167)"/>
<path d="M0 0 C2 1 2 1 3.125 4.0625 C3.41375 5.031875 3.7025 6.00125 4 7 C2.02 7.99 2.02 7.99 0 9 C0 6.03 0 3.06 0 0 Z " fill="#F0F4F3" transform="translate(968,158)"/>
<path d="M0 0 C1.2065625 0.0309375 1.2065625 0.0309375 2.4375 0.0625 C2.4375 1.3825 2.4375 2.7025 2.4375 4.0625 C1.4475 4.3925 0.4575 4.7225 -0.5625 5.0625 C-1.5525 3.7425 -2.5425 2.4225 -3.5625 1.0625 C-2.5625 0.0625 -2.5625 0.0625 0 0 Z " fill="#192A60" transform="translate(948.5625,139.9375)"/>
<path d="M0 0 C1.32 1.32 2.64 2.64 4 4 C2.125 5.0625 2.125 5.0625 0 6 C-0.66 5.67 -1.32 5.34 -2 5 C-1.34 3.35 -0.68 1.7 0 0 Z " fill="#E7EDF0" transform="translate(932,127)"/>
<path d="M0 0 C2.31 0 4.62 0 7 0 C7 0.66 7 1.32 7 2 C5.35 2.66 3.7 3.32 2 4 C1.34 2.68 0.68 1.36 0 0 Z " fill="#EAEDF1" transform="translate(1007,499)"/>
<path d="M0 0 C1.33332095 2.6666419 0.67102033 4.16680303 0 7 C-1.32 5.35 -2.64 3.7 -4 2 C-2.68 1.34 -1.36 0.68 0 0 Z " fill="#EBF0F2" transform="translate(926,490)"/>
<path d="M0 0 C1.37562854 1.28965176 2.70766393 2.62689293 4 4 C4 4.66 4 5.32 4 6 C2.68 6.33 1.36 6.66 0 7 C-1.125 2.25 -1.125 2.25 0 0 Z " fill="#E9EEEF" transform="translate(353,481)"/>
<path d="M0 0 C0.99 0.33 1.98 0.66 3 1 C3 2.65 3 4.3 3 6 C2.34 6 1.68 6 1 6 C0.34 4.35 -0.32 2.7 -1 1 C-0.67 0.67 -0.34 0.34 0 0 Z " fill="#EFF3F2" transform="translate(913,472)"/>
<path d="M0 0 C1.32 1.65 2.64 3.3 4 5 C2.02 5.99 2.02 5.99 0 7 C-0.66 6.34 -1.32 5.68 -2 5 C-1.34 3.35 -0.68 1.7 0 0 Z " fill="#E6EBEE" transform="translate(1307,335)"/>
<path d="M0 0 C0.99 0 1.98 0 3 0 C2.75 2.375 2.75 2.375 2 5 C-0.0625 6.3125 -0.0625 6.3125 -2 7 C-1.34 4.69 -0.68 2.38 0 0 Z " fill="#E0E5EB" transform="translate(265,187)"/>
<path d="M0 0 C1.2077558 3.62326739 0.54311128 4.64146369 -1 8 C-1.66 7.34 -2.32 6.68 -3 6 C-2.75 3.4375 -2.75 3.4375 -2 1 C-1.34 0.67 -0.68 0.34 0 0 Z " fill="#F2F6F3" transform="translate(1292,170)"/>
<path d="M0 0 C0.66 0.33 1.32 0.66 2 1 C2 4.51716303 1.17554415 5.37121748 -1 8 C-2.2077558 4.37673261 -1.54311128 3.35853631 0 0 Z " fill="#1A2C61" transform="translate(1219,138)"/>
</svg>
